<?xml version="1.0" encoding="UTF-8"?>
<svg version="1.1" xmlns="http://www.w3.org/2000/svg" width="1024" height="1024">
<path d="M0 0 C1.01449219 0.350625 2.02898438 0.70125 3.07421875 1.0625 C21.36234696 7.94744239 38.98948932 22.19565243 49 39 C49.66 39.66 50.32 40.32 51 41 C57.5873927 54.01253436 61.8052713 67.42430984 63 82 C63.28037109 83.17369141 63.28037109 83.17369141 63.56640625 84.37109375 C65.70903497 97.36198678 59.29920805 114.43493103 56 127 C56.81791016 127.67482422 56.81791016 127.67482422 57.65234375 128.36328125 C79.5107009 147.00827308 91.10493923 173.11467876 93.703125 201.359375 C95.85226455 230.49353185 86.83560443 257.80794615 68 280 C65.96782784 282.6431237 63.97873974 285.31670899 62 288 C62.495 288.94875 62.99 289.8975 63.5 290.875 C65 294 65 294 65 296 C65.99 296.33 66.98 296.66 68 297 C67.67 297.33 67.34 297.66 67 298 C67.5283234 299.9135616 68.06525032 301.82507963 68.64038086 303.72509766 C76.79483129 331.05836022 73.52186221 359.20155616 60.17578125 384.234375 C56.99423492 389.91292251 53.12852887 394.97166355 49 400 C48.46117187 400.70253906 47.92234375 401.40507813 47.3671875 402.12890625 C42.74000765 407.88381586 36.95368918 412.14317946 31.109375 416.58203125 C28.16370067 418.74772034 28.16370067 418.74772034 26.49316406 420.58862305 C25 422 25 422 22 423 C20.31035093 423.91269933 18.62322892 424.83008042 16.9375 425.75 C11.59309606 428.45818021 6.27179608 430.28430628 0.5 431.875 C-0.66607788 432.19742676 -0.66607788 432.19742676 -1.85571289 432.52636719 C-5.45696122 433.47706218 -8.21510152 434 -12 434 C-11.98525131 435.01934631 -11.97050262 436.03869263 -11.95530701 437.08892822 C-10.71415507 523.56793781 -10.71415507 523.56793781 -11.08621216 557.56481934 C-11.11195732 560.09380029 -11.12934566 562.62288088 -11.13815308 565.15197754 C-11.15321724 568.60996963 -11.20020841 572.06592816 -11.2578125 575.5234375 C-11.25706223 576.51288361 -11.25631195 577.50232971 -11.25553894 578.52175903 C-11.36538258 582.88773482 -11.5723188 586.06695461 -14.28076172 589.60717773 C-17.86340116 592.75975891 -17.86340116 592.75975891 -21.25 592.76171875 C-22.0234375 592.76494141 -22.796875 592.76816406 -23.59375 592.77148438 C-24.78484375 592.72991211 -24.78484375 592.72991211 -26 592.6875 C-26.7940625 592.70232422 -27.588125 592.71714844 -28.40625 592.73242188 C-32.71369381 592.67139975 -34.51339992 592.38205709 -38 589.64453125 C-41.00698583 585.66849726 -41.12430829 582.79702513 -41.12025452 577.94465637 C-41.12162918 576.67840927 -41.12300385 575.41216217 -41.12442017 574.10754395 C-41.12088102 572.70165992 -41.11724621 571.29577613 -41.11352539 569.88989258 C-41.11324336 568.41163637 -41.11340156 566.93338003 -41.1139679 565.4551239 C-41.11425526 561.43888848 -41.10836834 557.42268282 -41.10139394 553.40645432 C-41.0951503 549.21039877 -41.0945558 545.01434256 -41.09336853 540.81828308 C-41.0902582 532.87103333 -41.08204882 524.92379732 -41.07201904 516.97655362 C-41.06084866 507.92949966 -41.05534512 498.88244505 -41.05032361 489.83538592 C-41.03986597 471.22358282 -41.02227229 452.61179252 -41 434 C-41.77085937 433.86722656 -42.54171875 433.73445313 -43.3359375 433.59765625 C-44.33882812 433.42105469 -45.34171875 433.24445313 -46.375 433.0625 C-47.87160156 432.80146484 -47.87160156 432.80146484 -49.3984375 432.53515625 C-52 432 -52 432 -54 431 C-54 431.99 -54 432.98 -54 434 C-53.34 434.33 -52.68 434.66 -52 435 C-52.24419599 435.8282461 -52.24419599 435.8282461 -52.49332523 436.67322445 C-53.05740286 439.26360812 -53.1169548 441.57704233 -53.10679626 444.22840881 C-53.10452278 445.81570801 -53.10452278 445.81570801 -53.10220337 447.43507385 C-53.09209732 449.16889565 -53.09209732 449.16889565 -53.08178711 450.93774414 C-53.07718727 452.77017166 -53.07718727 452.77017166 -53.07249451 454.63961792 C-53.06533596 457.2953053 -53.05639237 459.95092014 -53.04459953 462.60658455 C-53.02626746 466.8147368 -53.01669606 471.02288094 -53.00868225 475.23106384 C-52.98456474 487.19729201 -52.94881348 499.16347049 -52.90405273 511.12963867 C-52.87940373 517.7399268 -52.86210135 524.35019513 -52.85249335 530.96052259 C-52.84599232 535.13396648 -52.83052061 539.30724627 -52.80817592 543.48063385 C-52.79356209 546.70590721 -52.7922537 549.93119248 -52.78881836 553.15649414 C-52.78005676 554.29820572 -52.77129517 555.4399173 -52.76226807 556.6162262 C-52.77545326 567.51422256 -53.20686403 576.81914583 -61 585 C-68.69505363 592.30043549 -76.17889326 592.43546719 -86.31447411 592.38590336 C-87.68255028 592.3899455 -89.0506231 592.39529842 -90.41868961 592.40184006 C-94.18468793 592.4160254 -97.95046858 592.41152678 -101.7164776 592.40400675 C-105.81113133 592.39910854 -109.90573842 592.41152913 -114.0003773 592.42173427 C-121.17902284 592.43720205 -128.35760768 592.44144689 -135.53626823 592.43836594 C-146.21116346 592.43379562 -156.8859914 592.44626641 -167.56087355 592.46198981 C-187.73396896 592.49102278 -207.90704152 592.49944297 -228.08015536 592.50116099 C-243.65581336 592.50253881 -259.23146238 592.5087096 -274.80711746 592.51826286 C-279.28805084 592.52095542 -283.76898423 592.52362486 -288.24991763 592.5262875 C-289.36383758 592.52695064 -290.47775753 592.52761378 -291.62543264 592.52829702 C-322.96315467 592.54676282 -354.30087359 592.55859838 -385.6386013 592.55726719 C-387.41132571 592.55719708 -387.41132571 592.55719708 -389.21986273 592.55712556 C-395.21001815 592.55687624 -401.20017358 592.55657911 -407.190329 592.55627144 C-408.38003064 592.55621161 -409.56973228 592.55615177 -410.79548548 592.55609012 C-413.20135192 592.55596881 -415.60721835 592.55584342 -418.01308479 592.55571395 C-455.45407062 592.55387521 -492.89497498 592.57640281 -530.3359375 592.61743164 C-572.38415547 592.66349006 -614.43231991 592.68933181 -656.48056471 592.68654197 C-660.96212681 592.68631807 -665.4436889 592.68617196 -669.92525101 592.68607903 C-671.02875593 592.68604406 -672.13226086 592.6860091 -673.26920532 592.68597308 C-691.04455333 592.68588067 -708.81983074 592.7050562 -726.59515774 592.73087582 C-744.45171806 592.75627745 -762.30817481 592.7592971 -780.16474317 592.73954786 C-790.77869091 592.72844246 -801.39232454 592.73401376 -812.00623915 592.76337488 C-819.09244033 592.7813244 -826.17841309 592.77754459 -833.26460362 592.75596338 C-837.3045855 592.74427597 -841.34395792 592.74211237 -845.38389771 592.76633544 C-849.06033687 592.78818637 -852.73565963 592.78235025 -856.41204923 592.75456383 C-858.35492271 592.74697517 -860.29784342 592.76878237 -862.24059498 592.79183218 C-870.0687239 592.69595971 -875.1379261 591.32539427 -881 586 C-882.77556991 584.06522786 -884.37583574 582.06711814 -886 580 C-886.66 580 -887.32 580 -888 580 C-888.8056747 574.3522009 -889.14290482 568.89825313 -889.12584114 563.19804382 C-889.12729458 562.34364625 -889.12874802 561.48924868 -889.13024551 560.60896027 C-889.13389022 557.75060061 -889.13042617 554.8922948 -889.12698364 552.03393555 C-889.12813606 549.96208258 -889.1297244 547.89022983 -889.13171089 545.81837749 C-889.13588758 540.12830162 -889.13382098 534.4382425 -889.13072467 528.74816656 C-889.12846406 522.61039968 -889.13195349 516.47263569 -889.13470459 510.33486938 C-889.13889698 499.00713025 -889.13852985 487.67939794 -889.13579312 476.35165897 C-889.13327728 465.88681301 -889.132621 455.42196901 -889.13381577 444.9571228 C-889.13389215 444.26288763 -889.13396854 443.56865247 -889.13404724 442.85337987 C-889.13435858 440.03523276 -889.13467698 437.21708565 -889.135007 434.39893855 C-889.1380658 407.96410885 -889.13529285 381.52928255 -889.1299101 355.09445338 C-889.12516452 331.61016762 -889.12558915 308.12588728 -889.13037109 284.64160156 C-889.13572605 258.25502979 -889.13784887 231.86846102 -889.13475883 205.48188877 C-889.13443811 202.66888491 -889.13412527 199.85588106 -889.13381577 197.0428772 C-889.13373669 196.35024704 -889.13365761 195.65761689 -889.13357614 194.94399794 C-889.1324388 184.48588835 -889.13376869 174.02778093 -889.13629532 163.56967163 C-889.13915397 151.67800229 -889.13834472 139.78633934 -889.13301457 127.89467025 C-889.13038418 121.82592134 -889.12936136 115.75718344 -889.13266373 109.6884346 C-889.13564023 104.13459153 -889.13401118 98.58076969 -889.12868617 93.02692854 C-889.1275678 91.01627169 -889.12814038 89.00561304 -889.13056196 86.99495733 C-889.13359919 84.26393137 -889.13048696 81.53297832 -889.12584114 78.80195618 C-889.12818231 78.01987765 -889.13052347 77.23779913 -889.13293558 76.43202126 C-889.11628375 71.53991149 -888.69106677 66.84439478 -888 62 C-887.34 62 -886.68 62 -886 62 C-885.835 61.319375 -885.67 60.63875 -885.5 59.9375 C-883.30686007 55.64260097 -879.92727018 52.75649907 -876 50 C-874.67094446 49.64999961 -873.33828841 49.31284664 -872 49 C-871.67 48.34 -871.34 47.68 -871 47 C-619.54 47 -368.08 47 -109 47 C-108.34 44.36 -107.68 41.72 -107 39 C-105.0625 36.75 -105.0625 36.75 -103 35 C-101.97971135 33.68212715 -100.98028616 32.34789347 -100 31 C-86.46395372 13.51834023 -67.23544673 0.48118137 -45.22265625 -3.5625 C-30.10463481 -5.41849861 -14.36058146 -5.38300464 0 0 Z " fill="#43465A" transform="translate(920,193)"/>
<path d="M0 0 C1.20030208 -0.00981429 2.40060416 -0.01962858 3.63727903 -0.02974027 C4.97083255 -0.02040093 6.30438348 -0.01068535 7.63793182 -0.00063419 C9.05334549 -0.0045259 10.46875525 -0.01016529 11.88415575 -0.01740509 C15.77827424 -0.03219677 19.6719899 -0.02195676 23.56609559 -0.00766838 C27.76384385 0.00341658 31.96153444 -0.00849295 36.15927887 -0.01751041 C44.38448499 -0.03146183 52.60953785 -0.02387271 60.8347367 -0.00883483 C70.40808205 0.0080033 79.98138897 0.00481779 89.55474454 0.00107109 C106.63308246 -0.00481098 123.71134671 0.00937765 140.78966522 0.03401852 C157.37139905 0.0579403 173.95303443 0.06502322 190.53478241 0.05452633 C208.57995283 0.04312355 226.62507769 0.04117914 244.67024755 0.05562443 C246.59351189 0.05715031 248.51677624 0.05867066 250.44004059 0.06018543 C251.85956112 0.06132215 251.85956112 0.06132215 253.30775884 0.06248184 C259.98496713 0.06722962 266.66215511 0.06536973 273.3393631 0.06112003 C281.47378341 0.05619931 289.60811054 0.06215115 297.74250948 0.08201433 C301.89487399 0.09190319 306.04709647 0.09697434 310.19946861 0.08912182 C313.99792808 0.08208541 317.79610044 0.08882141 321.59452194 0.10672545 C322.97130957 0.11078326 324.34812319 0.10974782 325.72490126 0.10320658 C327.59140774 0.0950951 329.45796966 0.10713035 331.32444763 0.12025452 C332.88184575 0.12179821 332.88184575 0.12179821 334.47070646 0.12337309 C337.65452289 0.56956367 339.00705499 1.10776823 341.16222382 3.50057125 C341.6624698 6.17804527 341.6624698 6.17804527 341.66279507 9.48358822 C341.67260936 10.74173368 341.68242365 11.99987913 341.69253534 13.29615021 C341.6831953 14.70014913 341.6734797 16.10414559 341.66342926 17.50813961 C341.66731961 18.99352425 341.67295792 20.47890518 341.68020016 21.96427727 C341.69501124 26.05640549 341.68474035 30.14815113 341.67046344 34.24026728 C341.65938945 38.64933071 341.67128436 43.05833889 341.68030548 47.46739864 C341.69426442 56.10883533 341.68666224 64.75012624 341.6716299 73.39155602 C341.65480087 83.44718459 341.65797612 93.50277653 341.66172398 103.55841482 C341.66760742 121.49586889 341.65341202 139.43325284 341.62877655 157.37068844 C341.60485436 174.79063705 341.59777167 192.21049197 341.60826874 209.63045406 C341.61966888 228.58313498 341.6216192 247.53577253 341.60717064 266.48845291 C341.60564474 268.50804615 341.60412439 270.52763938 341.60260963 272.54723263 C341.60185182 273.54100522 341.60109401 274.53477782 341.60031323 275.55866474 C341.5955634 282.57396457 341.59742678 289.58924509 341.60167503 296.60454464 C341.60659335 305.14964331 341.60065474 313.69465325 341.58078074 322.23973155 C341.5708849 326.60259079 341.5658282 330.96531472 341.57367325 335.32818127 C341.58070062 339.31783364 341.57399505 343.30721226 341.55606962 347.29682839 C341.55200589 348.74428739 341.553057 350.19177111 341.55958848 351.63922107 C341.56767717 353.59865702 341.55568473 355.55814573 341.54254055 357.51755428 C341.54151142 358.60838346 341.54048229 359.69921263 341.53942198 360.82309723 C341.16222382 363.50057125 341.16222382 363.50057125 339.9977513 365.35074002 C337.40139626 366.97717718 335.46985102 366.87787878 332.41346741 366.88088799 C330.60462562 366.8935479 330.60462562 366.8935479 328.75924158 366.90646356 C327.41419766 366.90066781 326.06915495 366.89458675 324.72411346 366.8882513 C323.30060197 366.89242167 321.87709379 366.89789755 320.45359182 366.90457112 C316.53255296 366.9190835 312.61172324 366.91476308 308.69067264 366.9074043 C304.46565931 366.90268922 300.24069232 366.91516767 296.01569366 366.92542171 C287.73523906 366.94264733 279.45486022 366.94344201 271.17439234 366.93820881 C264.44679215 366.93417312 257.71921441 366.93560349 250.9916153 366.94095707 C249.55727481 366.9420797 249.55727481 366.9420797 248.09395775 366.94322501 C246.15161454 366.94475643 244.20927134 366.94629478 242.26692814 366.94783998 C224.03852807 366.96157846 205.81017089 366.95611772 187.58177179 366.94465477 C170.89060853 366.93471932 154.19955608 366.94766606 137.50840992 366.97158896 C120.38521099 366.99594694 103.26206374 367.00559608 86.13884783 366.99893624 C76.51930297 366.99543687 66.89984339 366.9977233 57.28031158 367.01518726 C49.09202842 367.02986798 40.90389057 367.03059897 32.71561038 367.01311635 C28.53497673 367.00457002 24.35460311 367.0025447 20.17398262 367.01776791 C16.35080032 367.03151765 12.5281032 367.02697875 8.70494968 367.00752867 C7.3180518 367.00373824 5.93111596 367.00677728 4.54425162 367.01714032 C2.66653219 367.03017917 0.78868274 367.01642437 -1.08901978 367.0011425 C-2.13428251 367.00103517 -3.17954524 367.00092783 -4.2564826 367.00081724 C-6.83777618 366.50057125 -6.83777618 366.50057125 -8.67330366 364.84878784 C-10.14878563 361.87340528 -10.21493899 359.75011165 -10.21809292 356.42853451 C-10.22653286 355.17598149 -10.2349728 353.92342848 -10.2436685 352.63291931 C-10.23787307 351.24041345 -10.23179203 349.84790875 -10.22545624 348.45540524 C-10.22962768 346.97812113 -10.23510415 345.50084022 -10.24177605 344.02356529 C-10.25627422 339.95849816 -10.25197239 335.89363302 -10.24460924 331.82855463 C-10.23989068 327.44675651 -10.2523757 323.06500293 -10.26262665 318.68321896 C-10.27984535 310.09709423 -10.28064837 301.51104258 -10.27541374 292.92490506 C-10.27137681 285.94848179 -10.27280992 278.97208016 -10.278162 271.99565792 C-10.27891042 271.00377545 -10.27965885 270.01189298 -10.28042995 268.98995346 C-10.28196138 266.97513651 -10.28349973 264.96031957 -10.28504492 262.94550264 C-10.29878087 244.0403572 -10.2933244 225.13525312 -10.2818597 206.23010862 C-10.27192435 188.92213274 -10.28487127 171.61426373 -10.30879389 154.30630434 C-10.33315618 136.54687236 -10.34279996 118.7874902 -10.33614117 101.02804184 C-10.33264279 91.05245322 -10.33492182 81.07694683 -10.3523922 71.10137081 C-10.36707826 62.61011245 -10.3677968 54.11899422 -10.35032129 45.62773871 C-10.34177946 41.2930572 -10.33973887 36.9586264 -10.35497284 32.62395763 C-10.36873567 28.65890342 -10.36416632 24.6943167 -10.3447336 20.72929013 C-10.34094728 19.29193356 -10.34397068 17.85454029 -10.35434525 16.41721618 C-10.36741147 14.46904997 -10.35361203 12.52075822 -10.33834743 10.57260799 C-10.3382401 9.48877614 -10.33813276 8.40494429 -10.33802217 7.28826904 C-9.25516564 1.25388428 -5.67485042 0.00058667 0 0 Z " fill="#FEEDD0" transform="translate(95.83777618408203,365.4994287490845)"/>
<path d="M0 0 C1.52173828 0.5259375 1.52173828 0.5259375 3.07421875 1.0625 C21.36234696 7.94744239 38.98948932 22.19565243 49 39 C49.66 39.66 50.32 40.32 51 41 C57.5873927 54.01253436 61.8052713 67.42430984 63 82 C63.18691406 82.78246094 63.37382813 83.56492187 63.56640625 84.37109375 C65.70903497 97.36198678 59.29920805 114.43493103 56 127 C56.54527344 127.44988281 57.09054687 127.89976562 57.65234375 128.36328125 C79.5107009 147.00827308 91.10493923 173.11467876 93.703125 201.359375 C95.85226455 230.49353185 86.83560443 257.80794615 68 280 C65.96782784 282.6431237 63.97873974 285.31670899 62 288 C62.495 288.94875 62.99 289.8975 63.5 290.875 C65 294 65 294 65 296 C65.99 296.33 66.98 296.66 68 297 C67.67 297.33 67.34 297.66 67 298 C67.5283234 299.9135616 68.06525032 301.82507963 68.64038086 303.72509766 C76.79483129 331.05836022 73.52186221 359.20155616 60.17578125 384.234375 C56.99423492 389.91292251 53.12852887 394.97166355 49 400 C48.46117187 400.70253906 47.92234375 401.40507813 47.3671875 402.12890625 C42.74000765 407.88381586 36.95368918 412.14317946 31.109375 416.58203125 C28.16370067 418.74772034 28.16370067 418.74772034 26.49316406 420.58862305 C25 422 25 422 22 423 C20.31035093 423.91269933 18.62322892 424.83008042 16.9375 425.75 C11.59309606 428.45818021 6.27179608 430.28430628 0.5 431.875 C-0.66607788 432.19742676 -0.66607788 432.19742676 -1.85571289 432.52636719 C-5.45696122 433.47706218 -8.21510152 434 -12 434 C-11.98525131 435.01934631 -11.97050262 436.03869263 -11.95530701 437.08892822 C-10.71415507 523.56793781 -10.71415507 523.56793781 -11.08621216 557.56481934 C-11.11195732 560.09380029 -11.12934566 562.62288088 -11.13815308 565.15197754 C-11.15321724 568.60996963 -11.20020841 572.06592816 -11.2578125 575.5234375 C-11.25668709 577.00760666 -11.25668709 577.00760666 -11.25553894 578.52175903 C-11.36538258 582.88773482 -11.5723188 586.06695461 -14.28076172 589.60717773 C-17.86340116 592.75975891 -17.86340116 592.75975891 -21.25 592.76171875 C-22.0234375 592.76494141 -22.796875 592.76816406 -23.59375 592.77148438 C-24.78484375 592.72991211 -24.78484375 592.72991211 -26 592.6875 C-26.7940625 592.70232422 -27.588125 592.71714844 -28.40625 592.73242188 C-32.71369381 592.67139975 -34.51339992 592.38205709 -38 589.64453125 C-41.00698583 585.66849726 -41.12430829 582.79702513 -41.12025452 577.94465637 C-41.12231651 576.04528572 -41.12231651 576.04528572 -41.12442017 574.10754395 C-41.12088102 572.70165992 -41.11724621 571.29577613 -41.11352539 569.88989258 C-41.11324336 568.41163637 -41.11340156 566.93338003 -41.1139679 565.4551239 C-41.11425526 561.43888848 -41.10836834 557.42268282 -41.10139394 553.40645432 C-41.0951503 549.21039877 -41.0945558 545.01434256 -41.09336853 540.81828308 C-41.0902582 532.87103333 -41.08204882 524.92379732 -41.07201904 516.97655362 C-41.06084866 507.92949966 -41.05534512 498.88244505 -41.05032361 489.83538592 C-41.03986597 471.22358282 -41.02227229 452.61179252 -41 434 C-41.74416672 433.87198502 -42.48833344 433.74397003 -43.25505066 433.61207581 C-44.23718033 433.43917526 -45.21931 433.26627472 -46.23120117 433.08813477 C-47.20224289 432.91886978 -48.17328461 432.7496048 -49.17375183 432.57521057 C-53.08734525 431.77869867 -56.6464734 430.49696242 -60.3125 428.9375 C-61.03324707 428.63440918 -61.75399414 428.33131836 -62.49658203 428.01904297 C-74.24126194 422.8925406 -84.40352368 415.44615978 -94 407 C-94.60972656 406.4740625 -95.21945312 405.948125 -95.84765625 405.40625 C-114.80330826 387.83978289 -125.03630501 362.36418367 -126.22265625 336.90234375 C-126.85691527 315.6044647 -120.65049493 295.77532761 -109.6015625 277.6875 C-107.89508065 275.04191366 -107.89508065 275.04191366 -107 272 C-108.44444359 269.48949097 -109.93924393 267.14025803 -111.5625 264.75 C-125.80985435 242.86470896 -131.19075389 214.65071137 -125.82202148 188.91162109 C-121.95011357 172.96017681 -115.42794668 156.08394302 -104.0546875 143.9296875 C-102.72184993 142.01111094 -102.72184993 142.01111094 -103.578125 139.71875 C-104.04734375 138.8215625 -104.5165625 137.924375 -105 137 C-105.59554687 135.85789062 -106.19109375 134.71578125 -106.8046875 133.5390625 C-107.13911865 132.90991943 -107.4735498 132.28077637 -107.81811523 131.63256836 C-118.94003694 110.50631237 -122.0596048 84.09784179 -115.33203125 61.00390625 C-111.99522261 50.64926758 -108.43301404 40.15177248 -101 32 C-100.3090625 31.20464844 -99.618125 30.40929687 -98.90625 29.58984375 C-96.64346758 27.02096576 -94.33087533 24.50709271 -92 22 C-91.37351562 21.29617187 -90.74703125 20.59234375 -90.1015625 19.8671875 C-68.49604073 -3.37925998 -29.20566339 -10.94762228 0 0 Z " fill="#EA9927" transform="translate(920,193)"/>
<path d="M0 0 C0.95261719 0.53367187 1.90523438 1.06734375 2.88671875 1.6171875 C12.17720943 7.19981419 21.92585569 14.39079653 29.22265625 22.45703125 C30.86395888 24.22917043 30.86395888 24.22917043 33.03515625 23.96484375 C35.38801319 22.8094647 36.6794389 21.50850527 38.4375 19.5625 C50.82338111 6.7660372 67.23163942 -4.05579787 84 -10 C85.7015625 -10.6496875 85.7015625 -10.6496875 87.4375 -11.3125 C97.67796505 -13.2887301 106.2413989 -12.57033268 115.125 -7.0625 C123.1359162 0.24991669 126.46020558 12.99786896 127.1640625 23.43212891 C127.73120054 36.25653785 126.60287103 48.45044323 124 61 C119.71 61 115.42 61 111 61 C111.144375 60.05125 111.28875 59.1025 111.4375 58.125 C112.68380188 49.27237928 113.24035548 40.50287145 113.3125 31.5625 C113.33860352 30.07266602 113.33860352 30.07266602 113.36523438 28.55273438 C113.35977247 20.37626042 112.18853575 11.64132576 107 5 C101.81787456 1.72461598 95.87749241 2.29293324 90 3 C72.34759121 8.2937764 57.88900924 21.35589104 44 33 C44.62802162 37.57409083 47.48485285 39.90573011 50.62402344 43.07446289 C53.41504755 45.99196416 55.55056487 48.81410891 57.5 52.359375 C61.12109751 58.58787556 64.29844833 63.79631179 71.43554688 66.1171875 C79.19585629 67.69027581 86.9775915 68.33867196 94.88476562 68.67553711 C98 69 98 69 103 71 C101.02 76.94 101.02 76.94 99 83 C92.07 81.68 85.14 80.36 78 79 C79.753125 81.784375 81.50625 84.56875 83.3125 87.4375 C83.89322266 88.36385254 84.47394531 89.29020508 85.07226562 90.24462891 C87.74208273 94.49011792 90.44965542 98.69626934 93.28125 102.8359375 C93.79131592 103.59076416 94.30138184 104.34559082 94.8269043 105.12329102 C95.79866942 106.55530709 96.78406205 107.97819326 97.78442383 109.39038086 C99.87604494 112.49572538 101.0156935 114.1944003 100.94140625 118.0078125 C100.63074219 118.99523437 100.32007813 119.98265625 100 121 C99.64164063 122.19753906 99.28328125 123.39507813 98.9140625 124.62890625 C98.48813266 125.94132962 98.05827638 127.25248362 97.625 128.5625 C96.01237976 133.44487749 94.8249705 138.01656142 94.125 143.125 C91.7914638 154.04212842 83.43728538 163.16015417 77 172 C76.20458486 173.12066346 75.41110396 174.2427073 74.62109375 175.3671875 C69.76287665 182.20317565 64.54152448 188.76549209 59.32519531 195.32958984 C58.06332799 196.920175 56.8088083 198.51658112 55.5546875 200.11328125 C54.83539063 201.02464844 54.11609375 201.93601562 53.375 202.875 C52.74335938 203.67679688 52.11171875 204.47859375 51.4609375 205.3046875 C50.97882813 205.86414063 50.49671875 206.42359375 50 207 C49.67 207 49.34 207 49 207 C49 195.78 49 184.56 49 173 C52.63 172.01 56.26 171.02 60 170 C62.56311661 168.03411949 62.56311661 168.03411949 64.0625 165.375 C64.69414062 164.39273438 65.32578125 163.41046875 65.9765625 162.3984375 C66.64429688 161.27695312 67.31203125 160.15546875 68 159 C68.79834413 157.72064518 69.59788031 156.44203366 70.3984375 155.1640625 C75.07383946 147.57309072 79.27609878 139.76005449 83.1875 131.75 C83.58638428 130.95207031 83.98526855 130.15414062 84.39624023 129.33203125 C84.93293335 128.20087891 84.93293335 128.20087891 85.48046875 127.046875 C85.79910889 126.38526367 86.11774902 125.72365234 86.44604492 125.04199219 C87.37027657 121.6350845 86.48806037 119.01698929 84.99121094 115.89794922 C84.57645508 115.20717285 84.16169922 114.51639648 83.734375 113.8046875 C83.26338379 113.01489502 82.79239258 112.22510254 82.30712891 111.41137695 C80.12518394 107.85724929 77.93184181 104.31082848 75.71582031 100.77783203 C74.02749559 98.04451406 72.4146956 95.27606758 70.8046875 92.49609375 C69.74764811 90.76648023 68.68784724 89.03855068 67.625 87.3125 C67.16963867 86.49313965 66.71427734 85.6737793 66.24511719 84.82958984 C63.97611444 81.27847119 62.33469159 79.34396059 58.1730957 78.27148438 C55.14543055 78.01424483 52.17198848 77.92308143 49.13427734 77.97067261 C46.85244582 78.00202756 44.57660264 77.97274332 42.29492188 77.93383789 C38.04806971 77.87016957 33.8031747 77.85923755 29.5559082 77.86962891 C26.91026246 77.87505587 24.26478169 77.86961461 21.61914062 77.86328125 C19.92187463 77.86394103 18.22460873 77.86522011 16.52734375 77.8671875 C15.74399155 77.86516327 14.96063934 77.86313904 14.15354919 77.86105347 C8.48576426 77.8201533 8.48576426 77.8201533 3 79 C1.35019295 80.64666671 1.35019295 80.64666671 0.125 82.84765625 C-0.37950684 83.66943359 -0.88401367 84.49121094 -1.40380859 85.33789062 C-1.93055176 86.23701172 -2.45729492 87.13613281 -3 88.0625 C-3.55381348 88.98611328 -4.10762695 89.90972656 -4.67822266 90.86132812 C-6.47817143 93.89314057 -8.243469 96.94284236 -10 100 C-10.62229492 101.07749512 -11.24458984 102.15499023 -11.88574219 103.26513672 C-13.73855333 106.49773143 -15.56276246 109.74450887 -17.375 113 C-18.24125 114.52959351 -18.24125 114.52959351 -19.125 116.09008789 C-19.64835937 117.05035889 -20.17171875 118.01062988 -20.7109375 119 C-21.17806152 119.845625 -21.64518555 120.69125 -22.12646484 121.5625 C-23.53672493 125.49766957 -22.47183006 127.97136529 -20.77587891 131.66870117 C-20.26460449 132.61720947 -19.75333008 133.56571777 -19.2265625 134.54296875 C-18.65381592 135.609104 -18.08106934 136.67523926 -17.4909668 137.77368164 C-16.56731323 139.46352173 -16.56731323 139.46352173 -15.625 141.1875 C-14.99956299 142.34048584 -14.37412598 143.49347168 -13.72973633 144.68139648 C-6.11112333 160.2059595 -6.11112333 160.2059595 4 174 C5.55948542 174.15686249 7.12542668 174.25076639 8.69140625 174.31640625 C9.63564453 174.35830078 10.57988281 174.40019531 11.55273438 174.44335938 C12.54595703 174.48267578 13.53917969 174.52199219 14.5625 174.5625 C16.05813477 174.62727539 16.05813477 174.62727539 17.58398438 174.69335938 C20.0558415 174.79980298 22.5278031 174.90181928 25 175 C23.59585312 177.99737035 21.95092714 180.58949924 19.99609375 183.2578125 C19.13274414 184.44310547 19.13274414 184.44310547 18.25195312 185.65234375 C17.65318359 186.46832031 17.05441406 187.28429687 16.4375 188.125 C15.24741275 189.75166471 14.05854939 191.37922575 12.87109375 193.0078125 C12.34443115 193.72598145 11.81776855 194.44415039 11.27514648 195.18408203 C9.95121981 196.97421804 9.95121981 196.97421804 9 199 C5.60812721 197.58426179 3.90302459 195.95769034 1.75 193 C1.22921875 192.29875 0.7084375 191.5975 0.171875 190.875 C-1 189 -1 189 -1 187 C-1.87624023 186.86424561 -2.75248047 186.72849121 -3.65527344 186.58862305 C-6.96604541 186.07297882 -10.27596088 185.55236026 -13.58544922 185.02856445 C-15.00669469 184.80462131 -16.42823748 184.58255533 -17.85009766 184.36254883 C-26.68625987 182.99378552 -35.3638405 181.3623161 -44 179 C-46.96373201 192.07076755 -48.42938778 204.92807452 -48.5 218.3125 C-48.51804687 219.61582275 -48.53609375 220.91914551 -48.5546875 222.26196289 C-48.50879084 229.68144489 -48.07541442 236.58632453 -44 243 C-39.69478791 246.65725488 -36.05839569 247.37839622 -30.390625 247.2734375 C-21.49650466 246.25613615 -13.8727822 242.05963822 -6.3984375 237.390625 C-4 236 -4 236 -2 236 C-1.3291288 237.6232687 -0.66342971 239.24867578 0 240.875 C0.37125 241.77992188 0.7425 242.68484375 1.125 243.6171875 C2 246 2 246 2 248 C-10.38031771 257.52977052 -25.65457269 261.35493506 -41 260 C-47.45267669 258.19729398 -52.04182886 254.87145194 -55.75390625 249.30859375 C-66.71092713 229.0089093 -63.63098781 200.23285855 -57.3125 178.75 C-56.6628125 176.89375 -56.6628125 176.89375 -56 175 C-56.56203125 174.9484375 -57.1240625 174.896875 -57.703125 174.84375 C-76.75205198 172.27272918 -100.5883075 161.62952796 -112.8125 146.5625 C-119.26575181 137.78847318 -122.01871731 129.94393452 -121 119 C-117.99035862 106.81639154 -108.92514173 97.16197951 -98.42578125 90.77734375 C-69.84137744 74 -69.84137744 74 -56 74 C-56.19698486 73.45327637 -56.39396973 72.90655273 -56.59692383 72.34326172 C-63.7491065 51.82151076 -66.61158422 23.32547829 -58 3 C-54.53190927 -4.14139392 -49.80644162 -8.91697162 -42.2578125 -11.625 C-27.23358422 -14.12037356 -12.72142073 -7.17979935 0 0 Z " fill="#E79324" transform="translate(227,418)"/>
<path d="M0 0 C0.92373948 -0.00782324 1.84747896 -0.01564648 2.79921055 -0.02370679 C4.32384875 -0.01366855 4.32384875 -0.01366855 5.87928772 -0.00342751 C6.95779212 -0.00810748 8.03629652 -0.01278745 9.14748287 -0.01760924 C12.77964327 -0.02962351 16.41143083 -0.02007672 20.04359436 -0.01066017 C22.64012371 -0.01472301 25.23665133 -0.02006325 27.83317566 -0.02659035 C34.16450263 -0.03994905 40.49572307 -0.03704048 46.82705426 -0.02835242 C51.97141728 -0.02158466 57.11575039 -0.02065522 62.26011658 -0.02392387 C62.99153931 -0.02438357 63.72296203 -0.02484327 64.47654909 -0.0253169 C65.9622953 -0.02627605 67.44804151 -0.02724869 68.9337877 -0.02823468 C82.87445109 -0.03679483 96.81505536 -0.02694466 110.75570905 -0.01083358 C122.72442179 0.00257018 134.69304726 0.00024227 146.66175842 -0.01358986 C160.5516189 -0.02963466 174.44142752 -0.03597079 188.33129597 -0.02675307 C189.81165885 -0.02579739 191.29202174 -0.02485428 192.77238464 -0.02392387 C193.86501166 -0.02322963 193.86501166 -0.02322963 194.97971195 -0.02252137 C200.11949813 -0.01992817 205.25925149 -0.02430956 210.39903259 -0.03136253 C217.31335874 -0.04064179 224.22751684 -0.03406082 231.14182663 -0.01667976 C233.68518168 -0.01270013 236.22855056 -0.01387401 238.77190018 -0.02046776 C242.23252835 -0.02861496 245.69261991 -0.01844412 249.1532135 -0.00342751 C250.16963897 -0.01011967 251.18606443 -0.01681184 252.23329067 -0.02370679 C253.61889989 -0.01197193 253.61889989 -0.01197193 255.03250122 0 C255.83170518 0.00048706 256.63090914 0.00097411 257.4543314 0.00147593 C260.06970907 0.47846175 260.94755956 1.25655945 262.51625061 3.37752342 C262.98500061 6.77596092 262.98500061 6.77596092 263.01625061 10.75252342 C263.06265686 12.71318748 263.06265686 12.71318748 263.11000061 14.71346092 C262.34943533 19.40694931 261.32494981 20.55556378 257.51625061 23.37752342 C254.02349685 24.11309413 250.59191839 24.04790511 247.0333252 24.00571251 C245.96606817 24.0128069 244.89881114 24.01990128 243.79921299 24.02721065 C240.21681619 24.04483706 236.63549764 24.02666103 233.05311584 24.00862694 C230.4874675 24.01376391 227.92182267 24.02104349 225.35618591 24.03030968 C219.10757821 24.04693185 212.85937145 24.04017122 206.61077886 24.02222145 C201.53320168 24.00819831 196.45570939 24.00430202 191.3781147 24.00766373 C190.65557776 24.00814117 189.93304082 24.00861861 189.18860881 24.00911052 C187.72082239 24.01013684 186.25303598 24.0111922 184.7852496 24.01227628 C171.80595362 24.02084419 158.82680867 24.00416482 145.84754944 23.97444725 C133.24982868 23.94560361 120.65232542 23.93852897 108.05458069 23.95393944 C94.33863833 23.97069477 80.62279925 23.97474313 66.90685421 23.95722908 C65.44475974 23.95538467 63.98266525 23.95354994 62.52057076 23.95172501 C61.80117576 23.95081292 61.08178077 23.94990083 60.34058593 23.9489611 C55.26786639 23.94335198 50.19519721 23.9466663 45.12248039 23.95326996 C38.29751849 23.96180192 31.47291763 23.94886615 24.64799118 23.92142105 C22.13892488 23.91451725 19.62982932 23.91446045 17.12076378 23.92163658 C13.70421895 23.93028432 10.28865492 23.91445343 6.87219238 23.89218712 C5.37147907 23.90454827 5.37147907 23.90454827 3.84044832 23.91715914 C-2.81468257 23.83672147 -2.81468257 23.83672147 -6.09998989 21.58192921 C-8.17051137 18.28347342 -8.02633023 15.08098526 -7.92124939 11.31502342 C-7.92833923 10.59508202 -7.93542908 9.87514061 -7.94273376 9.1333828 C-7.879793 3.91898219 -7.879793 3.91898219 -6.23688412 1.67284715 C-4.00660063 0.02497658 -2.75860778 0.00168117 0 0 Z " fill="#EA9E25" transform="translate(498.48374938964844,562.6224765777588)"/>
<path d="M0 0 C6.45384658 2.97719174 11.17531359 7.03986649 14.26953125 13.484375 C16.31879212 19.72446664 16.00618604 26.82511315 13.63671875 32.9375 C10.80945022 38.47129962 6.2887742 42.56442353 0.74609375 45.30859375 C-2.2010305 46.23067304 -4.59540453 46.32422595 -7.67578125 46.25 C-8.65160156 46.23195313 -9.62742187 46.21390625 -10.6328125 46.1953125 C-11.73689453 46.16050781 -11.73689453 46.16050781 -12.86328125 46.125 C-12.96278076 47.07020508 -13.06228027 48.01541016 -13.16479492 48.98925781 C-13.8778616 53.93791426 -15.46893624 58.56391633 -17.0390625 63.296875 C-17.36029083 64.27987579 -17.68151917 65.26287659 -18.01248169 66.27566528 C-19.06087843 69.47746109 -20.11802418 72.6762855 -21.17578125 75.875 C-21.90591832 78.09643872 -22.63581553 80.31795629 -23.36547852 82.53955078 C-28.06054281 96.804926 -32.83905538 111.04074477 -37.76806641 125.22705078 C-40.01144284 131.68811602 -42.21258007 138.15367414 -44.28515625 144.671875 C-56.65175732 183.47188876 -56.65175732 183.47188876 -74.4921875 193.1171875 C-80.21469899 195.54949057 -85.55343463 196.46286563 -91.73828125 196.375 C-92.44227051 196.36678223 -93.14625977 196.35856445 -93.87158203 196.35009766 C-104.45236318 196.12310512 -112.63649504 193.69844033 -120.6875 186.4921875 C-128.24195945 178.3097755 -130.31799323 168.66139414 -130.1953125 157.83203125 C-129.66563114 151.91829466 -127.5619775 147.35806907 -124.86328125 142.125 C-124.39656006 141.19977539 -124.39656006 141.19977539 -123.92041016 140.25585938 C-121.74731318 135.95816735 -119.48515977 131.71558823 -117.16503906 127.49560547 C-116.25693852 125.84188148 -115.35577813 124.18433572 -114.45996094 122.52392578 C-113.02942779 119.88038156 -111.57480105 117.25151733 -110.11328125 114.625 C-109.66581543 113.79347412 -109.21834961 112.96194824 -108.75732422 112.10522461 C-108.32307129 111.33831299 -107.88881836 110.57140137 -107.44140625 109.78125 C-107.0640332 109.09869141 -106.68666016 108.41613281 -106.29785156 107.71289062 C-104.86328125 106.125 -104.86328125 106.125 -99.86328125 105.125 C-99.86328125 121.295 -99.86328125 137.465 -99.86328125 154.125 C-104.17267985 153.4067669 -107.0265216 152.81768808 -110.86328125 151.125 C-113.52020763 154.66756851 -114.40432554 157.55147948 -114.2109375 162.0078125 C-113.33195982 167.36068779 -110.8131598 171.13194515 -107.11328125 175 C-101.47204991 178.68849741 -95.58522066 179.82037304 -88.86328125 179.125 C-78.76156023 176.04365742 -72.93895326 171.17263569 -67.80401611 161.96299744 C-66.17462131 158.77950378 -64.97920596 155.46000254 -63.7734375 152.09765625 C-63.47942551 151.28840698 -63.18541351 150.47915771 -62.88249207 149.64538574 C-58.52721643 137.54896945 -54.46381714 125.34903084 -50.36265564 113.16471481 C-48.50475866 107.64757798 -46.64121256 102.13234394 -44.77840042 96.61686516 C-44.31767929 95.25261918 -43.85706434 93.88833735 -43.39655685 92.52401924 C-40.57422018 84.16287028 -37.73622653 75.80742939 -34.859375 67.46484375 C-34.57193924 66.63087067 -34.28450348 65.79689758 -33.98835754 64.93765259 C-32.71418021 61.2438815 -31.43572497 57.551656 -30.15161133 53.86132812 C-29.72130615 52.61673828 -29.29100098 51.37214844 -28.84765625 50.08984375 C-28.48381836 49.0443335 -28.11998047 47.99882324 -27.74511719 46.92163086 C-25.94642442 41.93170671 -25.94642442 41.93170671 -26.82421875 36.9921875 C-27.52417969 36.00605469 -27.52417969 36.00605469 -28.23828125 35 C-32.27005616 29.21136228 -32.50402372 24.05244753 -31.86328125 17.125 C-29.89440368 9.17424599 -24.80571852 4.20626842 -17.99609375 -0.0390625 C-12.44774769 -2.21368898 -5.61034829 -1.7144857 0 0 Z " fill="#E79324" transform="translate(365.86328125,486.875)"/>
<path d="M0 0 C1.07048615 -0.00694553 2.14097231 -0.01389106 3.24389744 -0.02104706 C6.8430653 -0.03939282 10.44157966 -0.0290313 14.04077148 -0.01878357 C16.61612443 -0.02583813 19.19147322 -0.03458119 21.76681519 -0.04489136 C28.04287892 -0.06654882 34.31876147 -0.06640014 40.5948503 -0.05826581 C45.69485333 -0.05196976 50.79480345 -0.05309919 55.89480591 -0.05953789 C56.6202537 -0.06043954 57.3457015 -0.0613412 58.09313256 -0.06227018 C59.56679751 -0.06412135 61.04046245 -0.06598391 62.51412737 -0.06785773 C76.33752291 -0.0844421 90.16081643 -0.07571142 103.98420584 -0.05887216 C116.63633089 -0.04417265 129.28821851 -0.05880589 141.94031298 -0.08764232 C154.92658739 -0.11702039 167.91275215 -0.1280134 180.89905834 -0.11846012 C182.36734706 -0.11743755 183.8356358 -0.11644294 185.30392456 -0.11547661 C186.02637865 -0.11500022 186.74883274 -0.11452383 187.49317938 -0.114033 C192.5879532 -0.11186686 197.68262343 -0.12168343 202.77737427 -0.13624763 C209.63271567 -0.15557116 216.4876075 -0.14871806 223.34292984 -0.12404823 C225.86329042 -0.11902181 228.3836844 -0.12257714 230.9040184 -0.13519669 C234.33610486 -0.151026 237.76671501 -0.13627024 241.19873047 -0.11352539 C242.20377908 -0.12536112 243.20882769 -0.13719685 244.24433231 -0.14939123 C250.95772934 -0.05856257 250.95772934 -0.05856257 254.21839905 2.85446262 C255.91901352 6.13041282 256.10083315 8.39687612 256.03686523 12.0771637 C256.03493164 13.74972229 256.03493164 13.74972229 256.03295898 15.45606995 C255.55211919 18.84793986 254.93331617 20.06490435 252.59936523 22.5146637 C250.53744602 23.01490968 250.53744602 23.01490968 248.11561584 23.01523495 C247.19187636 23.02504924 246.26813688 23.03486353 245.3164053 23.04497522 C244.29997983 23.03537021 243.28355436 23.02576521 242.23632812 23.01586914 C240.61857152 23.02417074 240.61857152 23.02417074 238.96813297 23.03264004 C235.33586496 23.04630845 231.70427673 23.03124323 228.07202148 23.01637268 C225.4754914 23.02015359 222.87896333 23.02565174 220.28244019 23.03274536 C213.95107781 23.04669752 207.61991452 23.03910722 201.28856158 23.02406978 C193.91963823 23.00723245 186.55076478 23.01041705 179.18182814 23.01416386 C166.03613614 23.02004605 152.89053984 23.00585682 139.74487305 22.98121643 C126.98116467 22.95729458 114.21758419 22.9502117 101.45385742 22.96070862 C87.5639916 22.97211117 73.67418497 22.97405611 59.78431988 22.95961052 C58.30395699 22.95808464 56.8235941 22.95656428 55.3432312 22.95504951 C54.61481319 22.9542917 53.88639518 22.95353389 53.13590389 22.95275311 C47.99612142 22.94800514 42.85636533 22.94986534 37.71658325 22.95411491 C30.80224741 22.95954854 23.8880924 22.94882635 16.97378922 22.92716026 C14.43043747 22.92157794 11.88706868 22.92114024 9.34371567 22.92611313 C5.88307804 22.93203279 2.42299028 22.91962428 -1.03759766 22.90234375 C-2.56223586 22.91135882 -2.56223586 22.91135882 -4.11767483 22.92055601 C-5.04141431 22.91211607 -5.96515379 22.90367613 -6.91688538 22.89498043 C-7.71608933 22.8939513 -8.51529329 22.89292217 -9.33871555 22.89186186 C-11.95428024 22.4133823 -12.8343671 21.63862378 -14.40063477 19.5146637 C-14.72695838 16.93053348 -14.8653345 14.65619321 -14.83813477 12.0771637 C-14.8574707 10.75845276 -14.87680664 9.43974182 -14.89672852 8.08106995 C-14.40063477 4.5146637 -14.40063477 4.5146637 -13.01966858 2.32392979 C-8.90748608 -0.51682481 -4.88576666 -0.04006022 0 0 Z " fill="#EC9E23" transform="translate(505.400634765625,489.48533630371094)"/>
<path d="M0 0 C0.79920396 -0.00010734 1.59840792 -0.00021467 2.42183018 -0.00032526 C3.34556966 -0.01013955 4.26930914 -0.01995384 5.22104073 -0.03006554 C6.23746619 -0.02046053 7.25389166 -0.01085552 8.3011179 -0.00095946 C9.3796223 -0.00649385 10.4581267 -0.01202825 11.56931305 -0.01773036 C15.20158106 -0.03139876 18.83316929 -0.01633354 22.46542454 -0.001463 C25.06195462 -0.0052439 27.65848269 -0.01074205 30.25500584 -0.01783568 C36.58636821 -0.03178783 42.9175315 -0.02419753 49.24888444 -0.00916009 C56.6178078 0.00767724 63.98668124 0.00449263 71.35561788 0.00074583 C84.50130989 -0.00513637 97.64690619 0.00905286 110.79257298 0.03369325 C123.55628135 0.0576151 136.31986184 0.06469799 149.0835886 0.05420107 C162.97345442 0.04279851 176.86326105 0.04085357 190.75312614 0.05529916 C192.23348903 0.05682504 193.71385192 0.0583454 195.19421482 0.05986017 C195.92263283 0.06061798 196.65105084 0.0613758 197.40154213 0.06215658 C202.5413246 0.06690454 207.68108069 0.06504434 212.82086277 0.06079477 C219.73519861 0.05536114 226.64935362 0.06608333 233.56365681 0.08774942 C236.10700855 0.09333174 238.65037734 0.09376945 241.19373035 0.08879656 C244.65436798 0.08287689 248.11445574 0.09528541 251.57504368 0.11256593 C253.09968188 0.10355087 253.09968188 0.10355087 254.65512085 0.09435368 C255.57886033 0.10279362 256.50259981 0.11123356 257.4543314 0.11992925 C258.25353536 0.12095838 259.05273932 0.12198751 259.87616158 0.12304783 C262.48599022 0.60047806 263.36968885 1.38687842 264.93808079 3.50024599 C265.33651829 6.71508974 265.33651829 6.71508974 265.31308079 10.43774599 C265.32081516 11.66364443 265.32854954 12.88954286 265.33651829 14.15258974 C264.9068032 17.76303907 264.41329006 18.93070075 261.93808079 21.50024599 C259.87616158 22.00164264 259.87616158 22.00164264 257.4543314 22.00361055 C256.53059192 22.01404154 255.60685244 22.02447253 254.65512085 22.03521961 C253.63869538 22.02629672 252.62226992 22.01737384 251.57504368 22.00818056 C250.49653928 22.01442052 249.41803488 22.02066048 248.30684853 22.02708954 C244.6745923 22.04310898 241.04299884 22.03037986 237.41073704 22.01782411 C234.81420594 22.02324123 232.21767791 22.03036156 229.62115574 22.03906435 C223.28980225 22.05687602 216.95863813 22.05299791 210.62727714 22.04141378 C205.48290718 22.03239009 200.33859041 22.03115083 195.19421482 22.03550905 C194.46279209 22.03612198 193.73136936 22.03673491 192.97778231 22.03736642 C191.49203609 22.03864529 190.00628988 22.03994214 188.52054369 22.04125679 C174.57986246 22.05267033 160.63928634 22.03953678 146.69862235 22.01805532 C134.72988657 22.00018361 122.76130595 22.0032875 110.79257298 22.02173036 C96.90270112 22.04312345 83.01292146 22.05157163 69.12303543 22.03928131 C67.64267255 22.03800708 66.16230966 22.03674959 64.68194675 22.03550905 C63.95352874 22.03489195 63.22511073 22.03427485 62.47461945 22.03363904 C57.33482344 22.03018144 52.19508578 22.03602329 47.05529881 22.04542726 C40.14092486 22.05779968 33.22684963 22.0490251 26.31250477 22.02585024 C23.7691519 22.02054407 21.22577443 22.02210925 18.68243122 22.0309009 C15.22165498 22.04176429 11.76183266 22.02820341 8.3011179 22.00818056 C7.28469243 22.01710345 6.26826696 22.02602633 5.22104073 22.03521961 C4.29730124 22.02478862 3.37356176 22.01435763 2.42183018 22.00361055 C1.62262622 22.00296114 0.82342226 22.00231173 0 22.00164264 C-2.06191921 21.50024599 -2.06191921 21.50024599 -3.81725121 19.66214508 C-5.52595178 16.69425468 -5.4603433 14.40454733 -5.43691921 11.00024599 C-5.44465359 9.87618349 -5.45238796 8.75212099 -5.46035671 7.59399599 C-4.96976611 3.78470428 -3.99829909 0.97003465 0 0 Z " fill="#ECA023" transform="translate(496.0619192123413,418.499754011631)"/>
<path d="M0 0 C1.30536484 -0.00935994 1.30536484 -0.00935994 2.6371007 -0.01890898 C5.56461396 -0.03491392 8.49130323 -0.02220551 11.41882324 -0.00964355 C13.51289864 -0.01506134 15.60697022 -0.02218206 17.70103455 -0.03088379 C23.39725223 -0.04916087 29.093181 -0.04203146 34.78940392 -0.02936745 C40.74177217 -0.01926249 46.69411518 -0.02862614 52.64648438 -0.03491211 C62.64372209 -0.04219582 72.64084172 -0.03258179 82.63806152 -0.0135498 C94.20737498 0.00822024 105.77640651 0.00116939 117.34571314 -0.02085543 C127.26678209 -0.03898878 137.18776602 -0.04157785 147.10884619 -0.03110075 C153.03957588 -0.02485447 158.97017292 -0.02406134 164.90089417 -0.0372467 C170.4757874 -0.04877451 176.05031604 -0.04083558 181.62516975 -0.01766968 C183.6750789 -0.01236616 185.72501856 -0.01392425 187.7749157 -0.02272034 C190.56577594 -0.03359464 193.35545592 -0.02001095 196.14624023 0 C196.96422734 -0.00892289 197.78221444 -0.01784577 198.62498903 -0.02703905 C204.06974426 0.04908376 204.06974426 0.04908376 206.57489777 2.33264923 C208.00571639 5.45063069 207.96983205 8.0919233 207.94812012 11.50793457 C207.95585449 12.72480957 207.96358887 13.94168457 207.97155762 15.19543457 C207.52908316 18.87404577 207.28589925 20.03510855 204.57312012 22.50793457 C201.64102392 22.90820792 199.08114753 23.04788413 196.14624023 23.01586914 C194.84087539 23.02522908 194.84087539 23.02522908 193.50913954 23.03477812 C190.58162627 23.05078306 187.65493701 23.03807465 184.72741699 23.0255127 C182.6333416 23.03093048 180.53927001 23.0380512 178.44520569 23.04675293 C172.748988 23.06503001 167.05305923 23.0579006 161.35683632 23.04523659 C155.40446806 23.03513163 149.45212506 23.04449528 143.49975586 23.05078125 C133.50251815 23.05806496 123.50539851 23.04845093 113.50817871 23.02941895 C101.93886525 23.0076489 90.36983372 23.01469975 78.8005271 23.03672457 C68.87945814 23.05485792 58.95847421 23.05744699 49.03739405 23.04696989 C43.10666436 23.04072361 37.17606732 23.03993048 31.24534607 23.05311584 C25.67045283 23.06464365 20.0959242 23.05670472 14.52107048 23.03353882 C12.47116134 23.0282353 10.42122167 23.02979339 8.37132454 23.03858948 C5.58046429 23.04946378 2.79078431 23.03588009 0 23.01586914 C-0.8179871 23.02479203 -1.63597421 23.03371491 -2.4787488 23.04290819 C-7.92350403 22.96678539 -7.92350403 22.96678539 -10.42865753 20.68321991 C-11.85947616 17.56523845 -11.82359182 14.92394584 -11.80187988 11.50793457 C-11.80961426 10.29105957 -11.81734863 9.07418457 -11.82531738 7.82043457 C-10.90465647 0.1663125 -6.90217718 -0.07529134 0 0 Z " fill="#EDA024" transform="translate(502.4268798828125,634.4920654296875)"/>
<path d="M0 0 C10.23 0.33 20.46 0.66 31 1 C32.28632822 90.5237771 32.28632822 90.5237771 31.91378784 124.56481934 C31.88804268 127.09380029 31.87065434 129.62288088 31.86184692 132.15197754 C31.84678276 135.60996963 31.79979159 139.06592816 31.7421875 142.5234375 C31.74293777 143.51288361 31.74368805 144.50232971 31.74446106 145.52175903 C31.63461742 149.88773482 31.4276812 153.06695461 28.71923828 156.60717773 C25.13659884 159.75975891 25.13659884 159.75975891 21.75 159.76171875 C20.9765625 159.76494141 20.203125 159.76816406 19.40625 159.77148438 C18.21515625 159.72991211 18.21515625 159.72991211 17 159.6875 C16.2059375 159.70232422 15.411875 159.71714844 14.59375 159.73242188 C10.28630619 159.67139975 8.48660008 159.38205709 5 156.64453125 C1.99301417 152.66849726 1.87569171 149.79702513 1.87974548 144.94465637 C1.87837082 143.67840927 1.87699615 142.41216217 1.87557983 141.10754395 C1.87911898 139.70165992 1.88275379 138.29577613 1.88647461 136.88989258 C1.88675664 135.41163637 1.88659844 133.93338003 1.8860321 132.4551239 C1.88574474 128.43888848 1.89163166 124.42268282 1.89860606 120.40645432 C1.9048497 116.21039877 1.9054442 112.01434256 1.90663147 107.81828308 C1.9097418 99.87103333 1.91795118 91.92379732 1.92798096 83.97655362 C1.93915134 74.92949966 1.94465488 65.88244505 1.94967639 56.83538592 C1.96013403 38.22358282 1.97772771 19.61179252 2 1 C1.34 0.67 0.68 0.34 0 0 Z " fill="#3B3F51" transform="translate(877,626)"/>
<path d="M0 0 C0.84896851 -0.0049649 1.69793701 -0.00992981 2.57263184 -0.01504517 C5.38990075 -0.02968635 8.20711331 -0.03647281 11.02441406 -0.04199219 C12.98016359 -0.04774299 14.93591311 -0.05350073 16.8916626 -0.05926514 C20.9974392 -0.06978135 25.10319619 -0.07561964 29.20898438 -0.07910156 C34.46595308 -0.08458095 39.72266207 -0.10859453 44.97954941 -0.13707352 C49.02191927 -0.15571502 53.06422684 -0.16090635 57.10663605 -0.16243744 C59.04428779 -0.16546218 60.98193848 -0.17348467 62.91954803 -0.18662262 C65.63406486 -0.2037111 68.34795094 -0.20179579 71.0625 -0.1953125 C71.86065125 -0.20452728 72.65880249 -0.21374207 73.48114014 -0.22323608 C79.10290883 -0.18125653 83.15956911 0.98419216 87.60253906 4.66113281 C91.11425524 9.09698482 90.01484451 15.63553748 90.04003906 20.97363281 C90.06066406 22.05451172 90.08128906 23.13539063 90.10253906 24.24902344 C90.1536663 34.65980812 90.1536663 34.65980812 86.79003906 39.16113281 C81.8320621 43.2496068 78.27525639 43.74158797 72.12597656 43.67871094 C71.27642395 43.68572021 70.42687134 43.69272949 69.55157471 43.69995117 C66.75572597 43.71749266 63.96089731 43.70592226 61.16503906 43.69238281 C59.21500454 43.69507884 57.26497134 43.69896218 55.31494141 43.70397949 C51.2329424 43.70986933 47.1512941 43.70132811 43.06933594 43.68261719 C37.84369999 43.65982803 32.61888585 43.67295386 27.39328003 43.69690704 C23.36801999 43.71137888 19.34295396 43.70675265 15.31768799 43.69639587 C13.39121401 43.69373242 11.46472227 43.69698489 9.53826904 43.70631409 C6.84307367 43.7165025 4.14919888 43.70094698 1.45410156 43.67871094 C0.6622345 43.68680786 -0.12963257 43.69490479 -0.94549561 43.70324707 C-6.13350525 43.62417232 -9.09782158 42.59147776 -13.20996094 39.16113281 C-16.38685797 34.39578727 -15.62049198 28.96521286 -15.63549805 23.39208984 C-15.64738452 21.29958622 -15.69655966 19.21004434 -15.74707031 17.11816406 C-15.75653677 15.78093881 -15.76377075 14.44369551 -15.76855469 13.10644531 C-15.78200928 11.8948877 -15.79546387 10.68333008 -15.80932617 9.43505859 C-15.04506031 5.26039253 -13.44000165 3.81543528 -10.20996094 1.16113281 C-7.00544303 -0.44112614 -3.52046856 0.00488111 0 0 Z " fill="#EB9D24" transform="translate(720.2099609375,692.8388671875)"/>
<path d="M0 0 C0.4125 1.05574219 0.825 2.11148437 1.25 3.19921875 C1.52602051 3.90216064 1.80204102 4.60510254 2.08642578 5.3293457 C2.70694821 6.931063 3.31426751 8.53794533 3.90966797 10.14916992 C5.5625926 14.5714387 7.33501097 18.72356456 9.6328125 22.8515625 C13.44304256 30.14912177 16.09733157 36.25577675 13.78338623 44.52275085 C11.53344468 51.53395962 8.52518038 58.21422952 5.40771484 64.87695312 C3.61776588 68.84799496 2.27276487 72.8378356 1 77 C-4.45946626 76.46913477 -9.30325159 75.48304517 -14.4375 73.5 C-15.11707764 73.23864258 -15.79665527 72.97728516 -16.49682617 72.70800781 C-30.23425303 67.25009311 -45.91456821 60.3211969 -53.6875 47 C-55.55405792 42.38468017 -55.97155452 37.88054342 -55 33 C-51.78312865 25.42276006 -45.57026079 20.62680527 -39 16 C-38.28585938 15.48824219 -37.57171875 14.97648438 -36.8359375 14.44921875 C-27.46138828 8.30441705 -11.50706685 0 0 0 Z " fill="#FEEDD1" transform="translate(174,504)"/>
<path d="M0 0 C18.4547942 5.50926253 33.91623552 18.78233264 48.04296875 31.37109375 C45.07218358 34.8409446 42.09901347 38.3086214 39.11328125 41.765625 C38.62730469 42.32958984 38.14132813 42.89355469 37.640625 43.47460938 C36.66797772 44.60334462 35.69404286 45.73097177 34.71875 46.85742188 C34.23019531 47.42525391 33.74164063 47.99308594 33.23828125 48.578125 C32.71613037 49.16625977 32.19397949 49.75439453 31.65600586 50.36035156 C29.95151592 52.38358282 29.95151592 52.38358282 28.55688477 54.92089844 C25.68968392 59.45638679 23.12954004 62.30494885 17.89257812 63.73071289 C12.87985333 64.80186469 7.81775948 65.40390242 2.73046875 65.99609375 C0.96105112 66.23564667 -0.8078425 66.47910426 -2.57617188 66.7265625 C-14.59168966 68.37109375 -14.59168966 68.37109375 -18.95703125 68.37109375 C-19.6067733 65.68448592 -20.25191543 62.99690701 -20.89453125 60.30859375 C-21.07693359 59.55642578 -21.25933594 58.80425781 -21.44726562 58.02929688 C-21.62451172 57.28486328 -21.80175781 56.54042969 -21.984375 55.7734375 C-22.14671631 55.09788818 -22.30905762 54.42233887 -22.47631836 53.72631836 C-23.98427141 46.33819085 -24.20735128 39.09168733 -24.25219727 31.57495117 C-24.26940033 29.57382253 -24.31331005 27.57298198 -24.35742188 25.57226562 C-24.41884556 16.11774308 -23.05988097 9.21929644 -17.95703125 1.24609375 C-12.36073201 -2.25159328 -6.26198823 -1.33180991 0 0 Z " fill="#FEEDD1" transform="translate(201.95703125,420.62890625)"/>
<path d="M0 0 C6.84615721 4.14741606 10.85899305 10.90958199 13.2890625 18.38671875 C13.80171254 20.75012233 14.08339381 22.97011161 14.2890625 25.38671875 C14.88074219 25.47308594 15.47242188 25.55945313 16.08203125 25.6484375 C21.54569499 26.61995356 24.89305323 27.67612524 28.2890625 32.38671875 C29.0390625 34.82421875 29.0390625 34.82421875 28.2890625 37.38671875 C25.4322058 40.74491799 22.7947012 43.19450955 18.3515625 43.76171875 C17.6709375 43.63796875 16.9903125 43.51421875 16.2890625 43.38671875 C18.01650104 39.76732371 19.76557007 36.51104272 22.2890625 33.38671875 C19.6490625 33.05671875 17.0090625 32.72671875 14.2890625 32.38671875 C14.17691406 33.42119141 14.17691406 33.42119141 14.0625 34.4765625 C12.70656278 44.16752555 8.79000151 51.09395009 1.0625 57.16796875 C-4.94250881 61.29475895 -10.59954617 62.34653844 -17.7109375 61.38671875 C-25.61846428 59.18727421 -32.26695907 54.44053515 -36.5078125 47.40625 C-40.12168707 40.34198566 -41.86382612 35.33692723 -41.7109375 27.38671875 C-46.6609375 27.88171875 -46.6609375 27.88171875 -51.7109375 28.38671875 C-50.70242001 31.77900485 -50.193289 33.09960476 -47.0859375 34.94921875 C-46.3021875 35.42359375 -45.5184375 35.89796875 -44.7109375 36.38671875 C-44.7109375 37.70671875 -44.7109375 39.02671875 -44.7109375 40.38671875 C-50.58188855 40.03446169 -53.71527338 38.76292231 -57.7109375 34.38671875 C-58.8359375 30.88671875 -58.8359375 30.88671875 -58.7109375 27.38671875 C-56.57451606 23.82601636 -54.53529958 21.91235872 -50.7109375 20.38671875 C-48.1328125 20.19140625 -48.1328125 20.19140625 -45.4609375 20.26171875 C-44.56890625 20.27976562 -43.676875 20.2978125 -42.7578125 20.31640625 C-42.08234375 20.33960938 -41.406875 20.3628125 -40.7109375 20.38671875 C-40.50339844 19.82984375 -40.29585937 19.27296875 -40.08203125 18.69921875 C-36.33723826 9.42341352 -30.67895178 2.92921294 -21.7109375 -1.61328125 C-14.46685679 -4.02797482 -6.88472077 -3.11451654 0 0 Z " fill="#E79022" transform="translate(272.7109375,513.61328125)"/>
<path d="M0 0 C0.33 0 0.66 0 1 0 C1.00097681 1.05879929 1.00195362 2.11759857 1.00296003 3.20848268 C1.04620541 49.87110042 1.09315208 96.53371257 1.15898132 143.19630432 C1.15997689 143.90275005 1.16097246 144.60919579 1.16199819 145.33704897 C1.18365671 160.69000422 1.2059794 176.04295843 1.22898628 191.39591172 C1.2402648 198.9249924 1.25139656 206.45407329 1.26245117 213.9831543 C1.26355374 214.7323885 1.2646563 215.4816227 1.26579228 216.25356096 C1.30146104 240.53855615 1.3274382 264.82354995 1.34838969 289.10856191 C1.36997118 314.06449021 1.40132977 339.02038758 1.44499113 363.97628749 C1.45115338 367.50110395 1.45720385 371.0259206 1.46318626 374.55073738 C1.46495759 375.59133948 1.46495759 375.59133948 1.46676469 376.65296385 C1.48548645 387.82034234 1.49390104 398.98770596 1.49846124 410.15509823 C1.50326571 421.38200079 1.51917021 432.60884682 1.54566566 443.8357228 C1.55969644 449.91873884 1.56884553 456.00166067 1.56500816 462.08469391 C1.56160186 467.65316823 1.57194041 473.22144124 1.59323552 478.78987432 C1.59851056 480.80481906 1.59873084 482.81978467 1.59339563 484.83472925 C1.58688044 487.57427577 1.59879512 490.31315821 1.61523914 493.0526495 C1.60896245 493.83438779 1.60268575 494.61612608 1.59621885 495.4215534 C1.66705725 501.83187983 2.79057081 508.23128016 6.8671875 513.33984375 C7.86105469 514.13068359 7.86105469 514.13068359 8.875 514.9375 C9.53242187 515.48277344 10.18984375 516.02804687 10.8671875 516.58984375 C15.09189018 519.38309955 18.70111251 520.25007159 23.73779184 520.25480902 C24.89289523 520.26073703 26.04799862 520.26666503 27.23810515 520.27277267 C28.50523774 520.26912299 29.77237034 520.26547331 31.07790089 520.26171303 C32.44466214 520.26490049 33.81142159 520.26896309 35.17817792 520.27382231 C38.94975171 520.28467873 42.72123432 520.28305391 46.49281826 520.27947159 C50.58994302 520.27776926 54.68704228 520.28761793 58.7841565 520.29602563 C65.96997706 520.30916943 73.15577405 520.31488471 80.34160614 520.31578636 C91.02672656 520.3171605 101.71181189 520.32993262 112.39692058 520.3450741 C130.36960895 520.37021804 148.34229436 520.38606777 166.31499672 520.39665604 C184.1152135 520.40717293 201.91541907 520.42179897 219.71562767 520.44193649 C220.8215887 520.44318536 221.92754973 520.44443423 223.06702474 520.44572094 C228.68343585 520.45208452 234.29984688 520.45852174 239.91625788 520.46498732 C279.71735943 520.51067357 319.51846462 520.54711111 359.31958008 520.578125 C397.99048395 520.60827933 436.6613804 520.64261338 475.33227539 520.68261719 C476.52387438 520.68384819 477.71547336 520.68507919 478.94318141 520.6863475 C490.90949653 520.69871415 502.87581156 520.71116589 514.84212653 520.72367998 C539.21979833 520.74917164 563.5974707 520.77409528 587.97514343 520.79867554 C589.656484 520.8003719 589.656484 520.8003719 591.37179104 520.80210253 C666.24785208 520.8775825 741.1239253 520.93982034 816 521 C815.67 521.66 815.34 522.32 815 523 C738.95285478 523.10281484 662.90570118 523.19821476 586.85850525 523.25405884 C585.73336747 523.25488718 584.60822968 523.25571552 583.44899682 523.25656897 C558.9979834 523.27452552 534.54696925 523.29114674 510.095954 523.30639198 C498.10555446 523.31387614 486.11515511 523.32165544 474.12475586 523.32958984 C472.93155338 523.3303744 471.7383509 523.33115895 470.50899077 523.33196728 C431.81892494 523.35754515 393.12891162 523.40262029 354.43887761 523.45778332 C314.68695214 523.51435756 274.93505574 523.55130771 235.1830907 523.56348994 C229.57116661 523.56521892 223.95924262 523.56717275 218.34731865 523.56926346 C217.24278822 523.569668 216.1382578 523.57007253 215.00025675 523.57048933 C197.20498593 523.57758556 179.40980487 523.60542982 161.61457069 523.6409922 C143.73364501 523.67628454 125.85280851 523.6898157 107.97184921 523.68100826 C97.34237239 523.67643737 86.7132214 523.68867696 76.08380329 523.72478526 C68.9870243 523.74725061 61.89045918 523.74800616 54.79366554 523.73099088 C50.74750071 523.72191481 46.70195293 523.72238997 42.65585376 523.74929909 C38.97374439 523.77360169 35.29273279 523.7702013 31.61064005 523.74483985 C29.66468666 523.73854255 27.71870568 523.7616753 25.77289477 523.78605086 C17.93821237 523.69541283 12.86598086 522.33197581 7 517 C5.22450519 515.06517935 3.62415421 513.06710536 2 511 C1.34 511 0.68 511 0 511 C-0.80688803 505.34569912 -1.142881 499.88530623 -1.12584114 494.17849064 C-1.12729458 493.32199589 -1.12874802 492.46550114 -1.13024551 491.58305201 C-1.1338903 488.71762719 -1.13042616 485.85225608 -1.12698364 482.98683167 C-1.12813605 480.90998985 -1.12972438 478.83314825 -1.13171089 476.75630707 C-1.13588753 471.0527169 -1.13382103 465.34914346 -1.13072467 459.64555323 C-1.12846414 453.49360517 -1.13195338 447.34166001 -1.13470459 441.18971252 C-1.13889658 429.83763809 -1.13853019 418.48557048 -1.13579312 407.13349622 C-1.13327795 396.65051462 -1.1326207 386.16753498 -1.13381577 375.68455315 C-1.13389215 374.9893021 -1.13396854 374.29405106 -1.13404724 373.57773181 C-1.13435857 370.75558603 -1.13467697 367.93344026 -1.135007 365.11129448 C-1.13806543 338.64324775 -1.13529301 312.17520442 -1.1299101 285.70715822 C-1.12516089 262.17594546 -1.12559226 238.64473811 -1.13037109 215.11352539 C-1.13572069 188.68343919 -1.13785219 162.25335598 -1.13475883 135.82326931 C-1.1344381 133.00842504 -1.13412526 130.19358077 -1.13381577 127.3787365 C-1.13369715 126.33908332 -1.13369715 126.33908332 -1.13357614 125.27842706 C-1.13243694 114.79547096 -1.13377206 104.31251703 -1.13629532 93.82956123 C-1.13914771 81.91975881 -1.13835748 70.00996278 -1.13301457 58.10016061 C-1.13037645 52.01810213 -1.1293744 45.93605468 -1.13266373 39.85399628 C-1.13562422 34.29620185 -1.13403807 28.73842875 -1.12868617 23.18063628 C-1.12756097 21.16068275 -1.12815543 19.14072746 -1.13056196 17.12077505 C-1.1335636 14.39403083 -1.13052395 11.66736155 -1.12584114 8.94062138 C-1.12818231 8.14015376 -1.13052347 7.33968614 -1.13293558 6.51496193 C-1.11415045 1.11415045 -1.11415045 1.11415045 0 0 Z " fill="#313444" transform="translate(32,262)"/>
<path d="M0 0 C7.44084344 1.52632686 12.6473832 6.67073451 16.91015625 12.703125 C21.23004992 20.3420859 22.22241155 27.32916553 21 36 C16.74079074 50.73514313 4.93508952 60.62390619 -7.80712891 68.05371094 C-18.45819331 73.87297198 -31.77142112 79 -44 79 C-43.85377197 79.75619629 -43.70754395 80.51239258 -43.55688477 81.29150391 C-42.89130156 84.73585082 -42.22688978 88.1804227 -41.5625 91.625 C-41.33240234 92.81480469 -41.10230469 94.00460937 -40.86523438 95.23046875 C-40.64287109 96.38417969 -40.42050781 97.53789063 -40.19140625 98.7265625 C-39.98717041 99.78439941 -39.78293457 100.84223633 -39.57250977 101.93212891 C-38.16923328 109.45177597 -37.78318896 116.54159222 -37.75 124.1875 C-37.729375 125.35603516 -37.70875 126.52457031 -37.6875 127.72851562 C-37.63921482 138.55043173 -39.33320859 149.14539849 -46 158 C-51.60543491 163.49922667 -57.51625329 165.97199971 -65.375 166.3125 C-70.16826329 166.20543398 -74.68109741 165.10160885 -79 163 C-80 161 -80 161 -79.20703125 158.6171875 C-77.69482797 155.64361131 -76.36837221 153.36405824 -74 151 C-70.80479342 150.42460127 -68.07573289 150.61861854 -64.84765625 150.890625 C-61.78000558 151.22215777 -61.78000558 151.22215777 -58.4375 149.375 C-52.42438233 143.51606484 -51.21551635 135.69825648 -50.84375 127.59375 C-50.79077114 121.50118102 -51.08680176 115.54428409 -51.74584961 109.49243164 C-51.82971924 108.6699292 -51.91358887 107.84742676 -52 107 C-52.0726709 106.29834717 -52.1453418 105.59669434 -52.22021484 104.8737793 C-52.6066186 97.40412186 -50.35832451 90.94712972 -47.83740234 84.02026367 C-47.11927528 82.04676782 -46.42313242 80.06654499 -45.73046875 78.08398438 C-42.34965607 68.52448411 -42.34965607 68.52448411 -40 65 C-37.57635647 64.13694645 -35.22636089 63.41789936 -32.75 62.75 C-18.11152794 58.4510735 -2.61410586 51.57830455 5.1953125 37.7265625 C7.32392803 33.15933888 7.58794347 28.95065445 7 24 C4.33026291 18.43804774 -0.30682418 14.85022676 -5 11 C-4.35731563 9.35293447 -3.71076198 7.70737825 -3.0625 6.0625 C-2.70285156 5.14597656 -2.34320313 4.22945312 -1.97265625 3.28515625 C-1 1 -1 1 0 0 Z " fill="#E79224" transform="translate(391,513)"/>
<path d="M0 0 C3.89964816 3.34255556 5.85206914 6.54053673 6.57421875 11.56640625 C6.75013946 16.02508643 6.4846131 19.1941158 4.6875 23.3125 C0.57148483 27.53141554 -3.48203516 29.54207645 -9.3125 30.375 C-14.34419568 29.65618633 -18.72641226 28.24282948 -22.171875 24.33203125 C-24.78530886 20.19409431 -26.05362955 15.77475239 -25.8125 10.875 C-24.25188332 5.67294439 -22.42040462 2.76833546 -17.8125 -0.125 C-11.84939621 -2.97102681 -6.02055848 -2.40822339 0 0 Z " fill="#4A4E61" transform="translate(234.8125,272.125)"/>
<path d="M0 0 C3.85598423 3.2425322 6.38123307 5.78757539 7.1328125 10.93359375 C7.31651008 15.44643092 7.07112611 18.60602255 5.1875 22.75 C1.2401568 26.89977106 -2.46199182 29.49271188 -8.3125 29.75 C-15.01282342 29.00551962 -18.85141917 26.33944952 -23.25 21.3125 C-25.05949727 15.8840082 -24.92895797 10.3493739 -23.125 4.9375 C-20.50301048 1.26671467 -17.48920074 -0.71717968 -13.375 -2.5 C-8.3126717 -2.94667603 -4.45229255 -2.31176728 0 0 Z " fill="#4B4E61" transform="translate(174.25,272.6875)"/>
<path d="M0 0 C5.09812934 0.43204486 8.60122688 1.9439664 12.015625 5.8203125 C15.05220434 10.41795023 15.58505545 14.92716732 14.6875 20.3125 C13.33765311 24.833289 11.43824719 28.20331705 7.4375 30.8125 C2.12285622 33.3676172 -2.44244667 32.81963311 -8 31.3125 C-12.31960482 28.70443671 -14.48001479 26.00366215 -16.3125 21.3125 C-17.3116528 15.67918134 -16.57181649 11.09283085 -13.3125 6.3125 C-9.1116867 1.97048289 -5.87799793 0.55452811 0 0 Z " fill="#4B4E62" transform="translate(107.3125,269.6875)"/>
<path d="M0 0 C4.28590933 2.79515826 7.22425239 5.92275717 8.875 10.875 C9.4310166 16.71317427 9.4310166 16.71317427 8.875 18.875 C6.23163433 21.65053396 4.49256789 22.75758586 0.7109375 23.4765625 C-8.05153597 23.53590205 -13.92542516 21.92169226 -21.125 16.875 C-22.125 15.875 -22.125 15.875 -22.4375 13.1875 C-22.03418016 8.91230972 -20.90712053 7.14399162 -18.125 3.875 C-12.30106739 -0.93827185 -7.39108527 -2.6607907 0 0 Z " fill="#FEEDD2" transform="translate(266.125,523.125)"/>
<path d="M0 0 C3.8063457 0.67170806 7.35206816 1.72746564 11 3 C11 4.32 11 5.64 11 7 C11.66 7.33 12.32 7.66 13 8 C12.83720267 8.55216407 12.67440535 9.10432814 12.50667477 9.67322445 C11.94259714 12.26360812 11.8830452 14.57704233 11.89320374 17.22840881 C11.89471939 18.28660828 11.89623505 19.34480774 11.89779663 20.43507385 C11.904534 21.59095505 11.91127136 22.74683624 11.91821289 23.93774414 C11.92281273 25.77017166 11.92281273 25.77017166 11.92750549 27.63961792 C11.93466404 30.2953053 11.94360763 32.95092014 11.95540047 35.60658455 C11.97373254 39.8147368 11.98330394 44.02288094 11.99131775 48.23106384 C12.01543526 60.19729201 12.05118652 72.16347049 12.09594727 84.12963867 C12.12059627 90.7399268 12.13789865 97.35019513 12.14750665 103.96052259 C12.15400768 108.13396648 12.16947939 112.30724627 12.19182408 116.48063385 C12.20643791 119.70590721 12.2077463 122.93119248 12.21118164 126.15649414 C12.22432404 127.86906151 12.22432404 127.86906151 12.23773193 129.6162262 C12.22454808 140.51311588 11.79355713 149.82062321 4 158 C0.74985895 161.09159758 -1.52708703 162.48880995 -6 163 C-3.98104916 160.87025307 -1.95254748 159.22776129 0.5 157.625 C4.85217007 154.5674628 6.96621256 151.20837295 8 146 C8.10006154 144.04455229 8.1461108 142.0860815 8.15821838 140.12811279 C8.1680072 138.92780426 8.17779602 137.72749573 8.18788147 136.49081421 C8.19363693 135.17739044 8.1993924 133.86396667 8.20532227 132.51074219 C8.21490435 131.11115227 8.22491463 129.71156523 8.23532104 128.3119812 C8.26234038 124.51483691 8.28336602 120.71768022 8.30332303 116.92049313 C8.32520092 112.95130598 8.35258079 108.98215691 8.37937927 105.01300049 C8.42928178 97.49788627 8.47422967 89.9827509 8.51740164 82.46759534 C8.56679488 73.91141294 8.62170527 65.35526873 8.67708123 56.79912329 C8.79086379 39.199451 8.89771094 21.59974265 9 4 C6.03 3.01 3.06 2.02 0 1 C0 0.67 0 0.34 0 0 Z " fill="#3B3E51" transform="translate(855,620)"/>
<path d="M0 0 C0.66 0 1.32 0 2 0 C2.26627197 0.51272461 2.53254395 1.02544922 2.80688477 1.55371094 C7.98508814 11.50673708 13.20595156 21.38801898 19 31 C15.50556189 32.1648127 14.01696079 31.7761661 10.45703125 31.00390625 C9.38388672 30.77509766 8.31074219 30.54628906 7.20507812 30.31054688 C6.08552734 30.06369141 4.96597656 29.81683594 3.8125 29.5625 C2.11577148 29.19801758 2.11577148 29.19801758 0.38476562 28.82617188 C-2.41173662 28.22439291 -5.20647043 27.61540548 -8 27 C-9.25588164 23.46292312 -8.74358989 21.53284636 -7.3828125 18.0859375 C-7.02316406 17.16039062 -6.66351563 16.23484375 -6.29296875 15.28125 C-5.90753906 14.3221875 -5.52210938 13.363125 -5.125 12.375 C-4.74730469 11.40820312 -4.36960938 10.44140625 -3.98046875 9.4453125 C-1.27196631 2.54393263 -1.27196631 2.54393263 0 0 Z " fill="#FEEDD1" transform="translate(196,559)"/>
<path d="M0 0 C-3.89855039 7.21614034 -7.88425693 14.37981703 -11.92749023 21.515625 C-13.69517298 24.64309336 -15.44242021 27.76056543 -17 31 C-17.66 31 -18.32 31 -19 31 C-20.50514646 26.87685942 -22.00324372 22.75119298 -23.5 18.625 C-23.92925781 17.449375 -24.35851562 16.27375 -24.80078125 15.0625 C-25.20683594 13.94101562 -25.61289063 12.81953125 -26.03125 11.6640625 C-26.40830078 10.62717285 -26.78535156 9.5902832 -27.17382812 8.52197266 C-28 6 -28 6 -28 4 C-24.45995797 3.3245086 -20.91773831 2.66119202 -17.375 2 C-16.37597656 1.80921875 -15.37695312 1.6184375 -14.34765625 1.421875 C-9.50947407 0.52472864 -4.94607582 -0.27009288 0 0 Z " fill="#FDEDD2" transform="translate(214,497)"/>
<path d="M0 0 C2.70567626 1.82339052 4.53728718 3.07457436 6 6 C6.54016597 10.50728651 6.60322525 13.94994123 4.3125 17.9375 C0.66907369 21.18704239 -1.59743193 22.02504586 -6.5 21.9375 C-10.84340897 20.77408688 -12.40020658 19.6702966 -15 16 C-16.10022191 12.89143652 -16.48576014 10.2719016 -16 7 C-12.0907308 0.05878934 -7.79985055 -1.74824236 0 0 Z " fill="#FDEED3" transform="translate(362,499)"/>
<path d="M0 0 C8.09815913 3.57324538 14.0408285 11.9176832 19 19 C19 19.33 19 19.66 19 20 C7.45 20 -4.1 20 -16 20 C-12.28904699 15.05206265 -8.60500971 10.21348582 -4.625 5.5 C-4.17511719 4.96375 -3.72523438 4.4275 -3.26171875 3.875 C-2.17633337 2.58177486 -1.08844738 1.29064906 0 0 Z " fill="#FDEDD2" transform="translate(258,462)"/>
<path d="M0 0 C8.25 0.66 16.5 1.32 25 2 C25 2.33 25 2.66 25 3 C22.06243881 3.0269501 19.12512445 3.04681474 16.1875 3.0625 C15.35412109 3.07087891 14.52074219 3.07925781 13.66210938 3.08789062 C12.45844727 3.09272461 12.45844727 3.09272461 11.23046875 3.09765625 C10.12288208 3.10551147 10.12288208 3.10551147 8.99291992 3.11352539 C7 3 7 3 4 2 C4.01380341 21.6017343 4.05601791 41.20321082 4.13209057 60.8048048 C4.16674922 69.90611134 4.19209723 79.00726629 4.19555664 88.10864258 C4.19859533 96.04108022 4.21907279 103.97324793 4.26052457 111.9055813 C4.28186514 116.1060857 4.29444989 120.30620626 4.28615379 124.50676537 C4.27862013 128.46076505 4.29440744 132.41398658 4.32806015 136.36784363 C4.33630185 137.81863423 4.33603331 139.26950209 4.32659721 140.72028542 C4.3149828 142.70225012 4.33704558 144.68432665 4.36076355 146.66618347 C4.36352893 147.77510043 4.36629431 148.88401739 4.36914349 150.0265379 C5.19507329 153.91945319 7.02815277 155.45810942 10 158 C7.6875 157.875 7.6875 157.875 5 157 C2.37088335 152.75984732 1.62680471 149.53172701 1.63923645 144.58389282 C1.63511246 143.31352173 1.63098846 142.04315063 1.6267395 140.73428345 C1.63735486 139.33929228 1.64825925 137.94430329 1.65942383 136.54931641 C1.66027065 135.07061785 1.65979388 133.59191804 1.65809631 132.11322021 C1.65723708 128.10945981 1.67485104 124.10597012 1.69581819 120.10227251 C1.71459706 115.91425487 1.71633638 111.72623074 1.71989441 107.53817749 C1.72921132 99.6122241 1.7538203 91.68639514 1.78394288 83.7604965 C1.8174979 74.73515366 1.83397567 65.70980481 1.84902918 56.6844151 C1.88037018 38.12287291 1.93312379 19.56144647 2 1 C1.34 0.67 0.68 0.34 0 0 Z " fill="#333546" transform="translate(877,626)"/>
<path d="M0 0 C0.74765625 0.42152344 1.4953125 0.84304688 2.265625 1.27734375 C3.25046875 1.82519531 4.2353125 2.37304688 5.25 2.9375 C6.22453125 3.48277344 7.1990625 4.02804687 8.203125 4.58984375 C13.76615133 7.39466568 19.48192398 7.93815361 25.51953125 6.328125 C27.70150363 5.59965548 29.85623414 4.83368672 32 4 C30.42572746 9.009049 27.66185884 12.43903339 23.1015625 15.11328125 C19.38905101 16.67971268 15.93912688 16.74907987 12 16 C7.49068281 13.59711126 3.68722149 10.36869927 1 6 C0.3125 2.75 0.3125 2.75 0 0 Z " fill="#FEEBCC" transform="translate(243,548)"/>
<path d="M0 0 C-6.27980887 2.70071112 -12.28460827 4.70024676 -19 6 C-19.66 9.3 -20.32 12.6 -21 16 C-19.35 16 -17.7 16 -16 16 C-19 18 -19 18 -23 18 C-23 20.64 -23 23.28 -23 26 C-23.66 26.33 -24.32 26.66 -25 27 C-29.77001424 35.65217912 -29.43070896 44.46458219 -29 54 C-29.33 54 -29.66 54 -30 54 C-30.39552527 51.33020445 -30.72894339 48.68379168 -31 46 C-31.0726709 45.30237549 -31.1453418 44.60475098 -31.22021484 43.88598633 C-31.6061284 36.41115014 -29.36011328 29.95204482 -26.83740234 23.02026367 C-26.11927528 21.04676782 -25.42313242 19.06654499 -24.73046875 17.08398438 C-21.34965607 7.52448411 -21.34965607 7.52448411 -19 4 C-16.34286549 2.94755499 -13.79075319 2.06103745 -11.0625 1.25 C-10.33353516 1.01667969 -9.60457031 0.78335938 -8.85351562 0.54296875 C-3.38943427 -1.12981142 -3.38943427 -1.12981142 0 0 Z " fill="#E0750D" transform="translate(370,574)"/>
<path d="M0 0 C3.59274927 3.24603116 4.58934884 6.73950118 6.0625 11.25 C6.32635498 12.04688232 6.59020996 12.84376465 6.86206055 13.66479492 C8.88355788 20.04243201 9.99408457 26.20024593 10.67578125 32.86328125 C10.92258038 35.91673063 10.92258038 35.91673063 11.59765625 38.51171875 C12.11294471 41.69850272 11.66675359 44.32369131 11.125 47.5 C10.94195313 48.6034375 10.75890625 49.706875 10.5703125 50.84375 C10.07772467 53.56985254 9.55689633 56.28639609 9 59 C8.67 59 8.34 59 8 59 C8.01571045 58.20005615 8.0314209 57.4001123 8.04760742 56.57592773 C8.36266043 38.10478184 8.22467177 21.86624824 0.98828125 4.51171875 C0 2 0 2 0 0 Z " fill="#D98B25" transform="translate(972,239)"/>
<path d="M0 0 C0.66 0 1.32 0 2 0 C2.12375 0.56847656 2.2475 1.13695312 2.375 1.72265625 C4.16015281 8.40582209 7.23721572 12.18980747 13 16 C16.95232133 17.89118554 20.24991506 18.29451822 24.61328125 18.4140625 C25.86044922 18.45273437 27.10761719 18.49140625 28.39257812 18.53125 C29.68615234 18.5621875 30.97972656 18.593125 32.3125 18.625 C33.62541016 18.66367187 34.93832031 18.70234375 36.29101562 18.7421875 C39.52720437 18.83633117 42.76338935 18.92196352 46 19 C46 19.33 46 19.66 46 20 C42.01652774 20.07480519 38.03333406 20.12890718 34.04931641 20.16479492 C32.03663752 20.18709408 30.02415416 20.22523653 28.01171875 20.26367188 C12.70852573 20.37902258 12.70852573 20.37902258 6.7578125 14.95703125 C5.94957031 13.89548828 5.94957031 13.89548828 5.125 12.8125 C4.11860865 11.51355302 3.08474655 10.23426567 2 9 C1.34 9 0.68 9 0 9 C0 6.03 0 3.06 0 0 Z " fill="#303342" transform="translate(32,764)"/>
<path d="M0 0 C7.98776637 1.99694159 14.04899489 7.05700493 18.67578125 13.75 C23.69002493 22.26977687 25.1192563 30.23948156 23 40 C22.01 40.495 22.01 40.495 21 41 C21.06960938 39.91203125 21.13921875 38.8240625 21.2109375 37.703125 C21.70132046 26.74206503 20.63241452 18.34764176 13.03125 9.78125 C9.35714387 6.3332427 6.00052425 4.12511796 1 3 C0.01 3.99 -0.98 4.98 -2 6 C-1.34 4.02 -0.68 2.04 0 0 Z " fill="#FDF8EF" transform="translate(390,511)"/>
<path d="M0 0 C5.75 4.5 5.75 4.5 8 9 C-3.55 9 -15.1 9 -27 9 C-25.68 7.68 -24.36 6.36 -23 5 C-23 5.66 -23 6.32 -23 7 C-22.43603516 6.99476318 -21.87207031 6.98952637 -21.29101562 6.98413086 C-18.69402211 6.96312733 -16.09704656 6.95026638 -13.5 6.9375 C-12.613125 6.92912109 -11.72625 6.92074219 -10.8125 6.91210938 C-5.44176914 6.89236404 -0.31366337 7.21164107 5 8 C4.175 7.05125 3.35 6.1025 2.5 5.125 C0 2.25 0 2.25 0 0 Z " fill="#FEFAF3" transform="translate(269,473)"/>
<path d="M0 0 C0.33 0 0.66 0 1 0 C1.00142502 0.71552536 1.00285004 1.43105072 1.00431824 2.16825867 C1.02217081 8.92172091 1.06385013 15.67457065 1.13209057 22.42772198 C1.16633696 25.89941175 1.19146668 29.37066263 1.19555664 32.8425293 C1.20066594 36.83695467 1.24579466 40.83006706 1.29296875 44.82421875 C1.2890361 46.06709152 1.28510345 47.30996429 1.28105164 48.59049988 C1.15305115 55.57403121 1.15305115 55.57403121 4.54418945 61.32348633 C5.35460693 61.87673584 6.16502441 62.42998535 7 63 C4.625 62.6875 4.625 62.6875 2 62 C-0.29790514 58.5531423 -0.24434461 57.29881048 -0.22705078 53.2434082 C-0.22689972 52.06241043 -0.22674866 50.88141266 -0.22659302 49.66462708 C-0.21627045 48.38955795 -0.20594788 47.11448883 -0.1953125 45.80078125 C-0.1924826 44.49545944 -0.18965271 43.19013763 -0.18673706 41.84526062 C-0.17910747 38.37804485 -0.15946493 34.91099712 -0.1373291 31.44384766 C-0.11685605 27.90464552 -0.10773223 24.36541618 -0.09765625 20.82617188 C-0.0762183 13.88404563 -0.04209056 6.94203089 0 0 Z " fill="#181C28" transform="translate(880,721)"/>
<path d="M0 0 C0.33 0 0.66 0 1 0 C1.14552459 4.42495389 1.2877593 8.84999912 1.42724609 13.27514648 C1.47489538 14.77322074 1.52336688 16.27126913 1.57275391 17.76928711 C1.90441128 27.85099434 2.06645656 37.91244755 2 48 C0.68 47.67 -0.64 47.34 -2 47 C-1.01 46.505 -1.01 46.505 0 46 C0 30.82 0 15.64 0 0 Z " fill="#DD6D02" transform="translate(264,593)"/>
<path d="M0 0 C5.75 -0.125 5.75 -0.125 8 1 C6.6284197 3.95417295 5.13179822 6.52711406 3 9 C2.01 9.33 1.02 9.66 0 10 C-1.70855022 13.00007271 -1.70855022 13.00007271 -3 16 C-4.31225809 12.06322574 -3.3393954 10.2205738 -2.0625 6.3125 C-1.68222656 5.13300781 -1.30195313 3.95351563 -0.91015625 2.73828125 C-0.60980469 1.83464844 -0.30945313 0.93101562 0 0 Z " fill="#FDF0DA" transform="translate(287,546)"/>
<path d="M0 0 C3.12885585 1.37590278 4.17431125 2.21453692 6.4375 5 C13.40038368 13.44359818 23.52711464 19.73966185 33 25 C32.01 25.495 32.01 25.495 31 26 C19.14404108 20.74810415 8.80410785 11.3691476 0 2 C0 1.34 0 0.68 0 0 Z " fill="#F3BE17" transform="translate(819,591)"/>
<path d="M0 0 C0.66 0 1.32 0 2 0 C3.9453125 2.08203125 3.9453125 2.08203125 6.125 4.8125 C6.84945313 5.70582031 7.57390625 6.59914063 8.3203125 7.51953125 C10 10 10 10 10 13 C-0.89 12.67 -11.78 12.34 -23 12 C-23 11.67 -23 11.34 -23 11 C-8.15 10.505 -8.15 10.505 7 10 C3.535 5.545 3.535 5.545 0 1 C0 0.67 0 0.34 0 0 Z " fill="#E0790E" transform="translate(269,471)"/>
<path d="M0 0 C3.61330846 0.42509511 7.20594023 0.86451008 10.79296875 1.4765625 C20.17696601 3.07029588 29.50581058 3.59508508 39 4 C39 4.33 39 4.66 39 5 C5.96178414 5.55042523 5.96178414 5.55042523 1.171875 1.42578125 C0.78515625 0.95527344 0.3984375 0.48476563 0 0 Z " fill="#F0B11A" transform="translate(865,622)"/>
<path d="M0 0 C1.65 0.66 3.3 1.32 5 2 C2.69742387 3.15128807 0.39454474 4.28340459 -1.9375 5.375 C-8.05982925 8.62358287 -10.67833329 11.38324988 -13 18 C-13.69140522 20.77888613 -13.69140522 20.77888613 -14 23 C-14.66 22.67 -15.32 22.34 -16 22 C-16 19.69 -16 17.38 -16 15 C-15.34 15 -14.68 15 -14 15 C-13.7525 13.9790625 -13.7525 13.9790625 -13.5 12.9375 C-11.30686007 8.64260097 -7.92727018 5.75649907 -4 3 C-1.7421875 2.296875 -1.7421875 2.296875 0 2 C0 1.34 0 0.68 0 0 Z " fill="#343746" transform="translate(48,240)"/>
<path d="M0 0 C0.63164062 0.40992188 1.26328125 0.81984375 1.9140625 1.2421875 C9.46528541 5.79033041 16.26500742 7.26039479 25 8 C25 8.33 25 8.66 25 9 C16.98573769 9.48817841 11.05087756 8.98837518 4 5 C5.72154788 8.76488042 7.99234114 11.15063897 11 14 C6.11577326 12.60450665 3.86058303 10.13195327 1 6 C0.60235737 4.01178687 0.2584036 2.01105412 0 0 Z " fill="#FDF9F1" transform="translate(243,548)"/>
<path d="M0 0 C3.79133356 0.54161908 5.66109564 1.99283725 8 5 C8.6875 7.375 8.6875 7.375 8 10 C5.15419004 13.3625073 2.4989086 15.80864997 -1.9375 16.375 C-2.618125 16.25125 -3.29875 16.1275 -4 16 C-2.07848152 11.86873527 0.04250209 8.46741134 3 5 C2.46930939 8.82097239 1.50298434 11.06171403 -1 14 C2.18234105 12.24545615 2.18234105 12.24545615 5 10 C5.50042146 7.08461971 5.50042146 7.08461971 5 4 C2.59141286 2.1375562 2.59141286 2.1375562 0 1 C0 0.67 0 0.34 0 0 Z " fill="#E27910" transform="translate(293,541)"/>
<path d="M0 0 C0.33 0.66 0.66 1.32 1 2 C-2.14923138 6.90909598 -4.29326267 10.02011154 -10 12 C-13.375 12.1875 -13.375 12.1875 -16 12 C-15.67 11.34 -15.34 10.68 -15 10 C-12.95756472 9.36614078 -10.90867481 8.98173496 -8.8125 8.5625 C-8.214375 8.376875 -7.61625 8.19125 -7 8 C-6.67 7.34 -6.34 6.68 -6 6 C-6.66 5.67 -7.32 5.34 -8 5 C-8 4.34 -8 3.68 -8 3 C-5.36 2.01 -2.72 1.02 0 0 Z " fill="#FCF0DA" transform="translate(274,552)"/>
<path d="M0 0 C2.79173055 -0.02690104 5.58320348 -0.04679053 8.375 -0.0625 C9.56609375 -0.07506836 9.56609375 -0.07506836 10.78125 -0.08789062 C16.7734375 -0.11328125 16.7734375 -0.11328125 19 1 C19 2.32 19 3.64 19 5 C18.01 5 17.02 5 16 5 C16 4.34 16 3.68 16 3 C10.72 3 5.44 3 0 3 C0 2.01 0 1.02 0 0 Z " fill="#49414F" transform="translate(888,627)"/>
<path d="M0 0 C1.09580806 3.28742418 0.9724614 3.78844921 -0.14453125 6.87890625 C-0.40862793 7.63123535 -0.67272461 8.38356445 -0.94482422 9.15869141 C-1.23115723 9.95194824 -1.51749023 10.74520508 -1.8125 11.5625 C-4.06151489 18.01053523 -5.90952979 24.23908472 -7 31 C-7.33 31 -7.66 31 -8 31 C-9.03435556 25.64015758 -9.22871418 23.01902632 -6.87963867 17.93334961 C-5.34000573 14.54940478 -4.10367792 11.04708634 -2.8125 7.5625 C-2.53986328 6.83095703 -2.26722656 6.09941406 -1.98632812 5.34570312 C-1.32269399 3.56436939 -0.6611284 1.78226524 0 0 Z " fill="#19216B" transform="translate(802,484)"/>
<path d="M0 0 C0.33 0 0.66 0 1 0 C1.60017024 4.80136189 1.20626259 7.24280573 -1.6875 11.1875 C-5.52206134 15.83217993 -8.79166571 19.29047608 -15 20 C-12.98104916 17.87025307 -10.95254748 16.22776129 -8.5 14.625 C-3.06630469 10.78137553 -1.62064269 6.35790593 0 0 Z " fill="#343746" transform="translate(864,763)"/>
<path d="M0 0 C0.721875 0.78375 1.44375 1.5675 2.1875 2.375 C5.23182947 5.21637417 7.75667678 7 12 7 C12 7.66 12 8.32 12 9 C15.63 9.33 19.26 9.66 23 10 C23 10.33 23 10.66 23 11 C15.19391525 11.81533574 9.98298486 10.5643274 3.1171875 6.80078125 C0.5586479 4.62460642 0.27990825 3.28612284 0 0 Z " fill="#FDF6EB" transform="translate(244,535)"/>
<path d="M0 0 C-4.51654898 3.01103265 -8.47362381 3.12682381 -13.8125 3.0625 C-15.27623047 3.04896484 -15.27623047 3.04896484 -16.76953125 3.03515625 C-17.87361328 3.01775391 -17.87361328 3.01775391 -19 3 C-18.67 2.01 -18.34 1.02 -18 0 C-11.78675502 -0.73030908 -6.15901243 -1.23180249 0 0 Z " fill="#FBE5C4" transform="translate(208,678)"/>
<path d="M0 0 C2.09782787 2.09782787 2.6509396 3.3799207 3.625 6.125 C4.01558594 7.21167969 4.01558594 7.21167969 4.4140625 8.3203125 C4.70410156 9.15175781 4.70410156 9.15175781 5 10 C5.99 9.34 6.98 8.68 8 8 C7.125 12.75 7.125 12.75 6 15 C5.34 15 4.68 15 4 15 C3.32779649 13.06441401 2.66241923 11.12645628 2 9.1875 C1.62875 8.10855469 1.2575 7.02960937 0.875 5.91796875 C0 3 0 3 0 0 Z " fill="#FCF4E6" transform="translate(191,513)"/>
<path d="M0 0 C-3.11910856 1.79275866 -5.67682428 2.34290718 -9.25 2.625 C-10.14203125 2.69976563 -11.0340625 2.77453125 -11.953125 2.8515625 C-12.96632813 2.92503906 -12.96632813 2.92503906 -14 3 C-14.33 2.34 -14.66 1.68 -15 1 C-9.69276568 -0.42705634 -5.46108889 -1.4002792 0 0 Z " fill="#D99026" transform="translate(920,624)"/>
<path d="M0 0 C0.66 0 1.32 0 2 0 C2.69710731 1.28650706 3.38242876 2.57940665 4.0625 3.875 C4.63677734 4.95394531 4.63677734 4.95394531 5.22265625 6.0546875 C5.47917969 6.69664062 5.73570312 7.33859375 6 8 C5.67 8.66 5.34 9.32 5 10 C3.68 8.02 2.36 6.04 1 4 C0.01 6.31 -0.98 8.62 -2 11 C-2.95465783 8.83032311 -3.14401212 7.43671207 -2.3984375 5.17578125 C-1.64129615 3.4315257 -0.82390802 1.71372869 0 0 Z " fill="#FDF7EC" transform="translate(196,559)"/>
<path d="M0 0 C5.75 -0.125 5.75 -0.125 8 1 C6.63016497 4.16115776 6.0109362 4.9927092 3 7 C3.66 5.68 4.32 4.36 5 3 C4.01 3.495 4.01 3.495 3 4 C2.01 4.33 1.02 4.66 0 5 C0 3.35 0 1.7 0 0 Z " fill="#FDF8ED" transform="translate(287,546)"/>
<path d="M0 0 C3.3 0 6.6 0 10 0 C9.67 0.66 9.34 1.32 9 2 C7.02 2 5.04 2 3 2 C3 2.66 3 3.32 3 4 C1.68 4.33 0.36 4.66 -1 5 C-0.67 3.35 -0.34 1.7 0 0 Z M-2 1 C-1.34 1.33 -0.68 1.66 0 2 C-0.99 2 -1.98 2 -3 2 C-2.67 1.67 -2.34 1.34 -2 1 Z " fill="#E99A2C" transform="translate(221,536)"/>
<path d="M0 0 C2.64 0.33 5.28 0.66 8 1 C8 1.66 8 2.32 8 3 C6.35 2.67 4.7 2.34 3 2 C3.680625 2.928125 4.36125 3.85625 5.0625 4.8125 C5.701875 5.864375 6.34125 6.91625 7 8 C6.67 8.99 6.34 9.98 6 11 C4.9944239 9.54550599 3.99569565 8.08627557 3 6.625 C2.443125 5.81289063 1.88625 5.00078125 1.3125 4.1640625 C0 2 0 2 0 0 Z " fill="#FDF5E7" transform="translate(305,497)"/>
<path d="M0 0 C0.33 0 0.66 0 1 0 C1 4.95 1 9.9 1 15 C-0.32 14.67 -1.64 14.34 -3 14 C-2.34 13.67 -1.68 13.34 -1 13 C-0.53045739 9.95418731 -0.53045739 9.95418731 -0.375 6.4375 C-0.30023438 5.23996094 -0.22546875 4.04242187 -0.1484375 2.80859375 C-0.09945313 1.88175781 -0.05046875 0.95492187 0 0 Z " fill="#E18012" transform="translate(265,626)"/>
<path d="M0 0 C0.66 0 1.32 0 2 0 C2.226875 0.763125 2.45375 1.52625 2.6875 2.3125 C3.79508931 5.20253252 3.79508931 5.20253252 6.625 6.5625 C7.40875 7.036875 8.1925 7.51125 9 8 C9 9.32 9 10.64 9 12 C8.01 11.67 7.02 11.34 6 11 C6 10.34 6 9.68 6 9 C5.01 8.21625 4.02 7.4325 3 6.625 C2.01 5.75875 1.02 4.8925 0 4 C0 2.68 0 1.36 0 0 Z " fill="#E38013" transform="translate(219,542)"/>
<path d="M0 0 C-0.78483659 1.48280196 -1.57809334 2.9611498 -2.375 4.4375 C-2.81585938 5.26121094 -3.25671875 6.08492188 -3.7109375 6.93359375 C-5 9 -5 9 -7 10 C-5.125 5.25 -5.125 5.25 -4 3 C-5.65 2.67 -7.3 2.34 -9 2 C-5.5647952 -0.29013653 -4.014669 -0.17842973 0 0 Z " fill="#FDF6EB" transform="translate(214,497)"/>
<path d="M0 0 C-0.64544429 3.48539917 -2.10134397 6.02819057 -4 9 C-4.66 8.67 -5.32 8.34 -6 8 C-5.01 6.35 -4.02 4.7 -3 3 C-5.97 2.505 -5.97 2.505 -9 2 C-5.5647952 -0.29013653 -4.014669 -0.17842973 0 0 Z " fill="#E48111" transform="translate(216,495)"/>
<path d="M0 0 C3.1528493 1.36486983 4.97025502 2.83759259 7.125 5.5 C8.70299531 7.4295694 10.23458294 9.23458294 12 11 C9 11 9 11 6.73828125 9.1015625 C5.93777344 8.28429687 5.13726563 7.46703125 4.3125 6.625 C3.50425781 5.81289063 2.69601562 5.00078125 1.86328125 4.1640625 C0 2 0 2 0 0 Z " fill="#EAB11C" transform="translate(819,591)"/>
<path d="M0 0 C0.33 0 0.66 0 1 0 C1.33 1.98 1.66 3.96 2 6 C2.99 5.34 3.98 4.68 5 4 C3.43039961 7.66240092 2.06096354 8.93903646 -1 12 C-0.67 8.04 -0.34 4.08 0 0 Z " fill="#E38113" transform="translate(277,613)"/>
<path d="M0 0 C0.33 1.32 0.66 2.64 1 4 C4.3 4.66 7.6 5.32 11 6 C11 6.33 11 6.66 11 7 C7.37 6.67 3.74 6.34 0 6 C-1 2 -1 2 0 0 Z " fill="#FCF5E7" transform="translate(188,580)"/>
<path d="M0 0 C-3.27301919 2.96909598 -5.38065762 3.34354794 -9.75 3.1875 C-10.73484375 3.16042969 -11.7196875 3.13335937 -12.734375 3.10546875 C-13.48203125 3.07066406 -14.2296875 3.03585937 -15 3 C-11.07677056 -0.92322944 -5.25785342 -0.10515707 0 0 Z " fill="#E1770B" transform="translate(205,486)"/>
<path d="M0 0 C6.42857143 4.14285714 6.42857143 4.14285714 9 7 C8.67 7.66 8.34 8.32 8 9 C6.68 7.68 5.36 6.36 4 5 C3.01 5.495 3.01 5.495 2 6 C0 3 0 3 0 0 Z " fill="#E09226" transform="translate(976,321)"/>
<path d="M0 0 C0.33 0.66 0.66 1.32 1 2 C-0.4375 4.625 -0.4375 4.625 -2 7 C-3.32 6.34 -4.64 5.68 -6 5 C-5.67 4.34 -5.34 3.68 -5 3 C-4.01 3 -3.02 3 -2 3 C-1.34 2.01 -0.68 1.02 0 0 Z " fill="#E2790E" transform="translate(238,610)"/>
<path d="M0 0 C0.99 0.33 1.98 0.66 3 1 C3.33 1.99 3.66 2.98 4 4 C0.7 3.34 -2.6 2.68 -6 2 C-6 1.67 -6 1.34 -6 1 C-4.02 1 -2.04 1 0 1 C0 0.67 0 0.34 0 0 Z " fill="#FCF2E2" transform="translate(211,587)"/>
<path d="M0 0 C0.598125 0.763125 1.19625 1.52625 1.8125 2.3125 C3.46959332 4.3483575 5.10297674 6.1978279 7 8 C4.625 7.6875 4.625 7.6875 2 7 C0 4 0 4 0 0 Z " fill="#2A2D3B" transform="translate(880,776)"/>
<path d="M0 0 C0.125 2.875 0.125 2.875 0 6 C-0.66 6.66 -1.32 7.32 -2 8 C-3 7 -3 7 -3.0625 3.9375 C-3.041875 2.968125 -3.02125 1.99875 -3 1 C-1 0 -1 0 0 0 Z " fill="#FAE4C3" transform="translate(340,620)"/>
<path d="M0 0 C2.5 2.3125 2.5 2.3125 5 5 C5 5.99 5 6.98 5 8 C2.21611025 6.29374499 1.14615794 5.52373261 0.25 2.3125 C0.1675 1.549375 0.085 0.78625 0 0 Z " fill="#E09126" transform="translate(962,224)"/>
<path d="M0 0 C0 3 0 3 0 3 Z " fill="#DB9129" transform="translate(951,208)"/>
<path d="" fill="#4F4F5E" transform="translate(0,0)"/>
<path d="M0 0 C0.99 0.495 0.99 0.495 2 1 C1.01 1.495 1.01 1.495 0 2 C0 1.34 0 0.68 0 0 Z " fill="#966F4A" transform="translate(909,632)"/>
<path d="" fill="#E5992D" transform="translate(0,0)"/>
<path d="M0 0 C0.33 0.66 0.66 1.32 1 2 C0.34 1.67 -0.32 1.34 -1 1 C-0.67 0.67 -0.34 0.34 0 0 Z " fill="#E5992D" transform="translate(991,470)"/>
<path d="" fill="#E59C2E" transform="translate(0,0)"/>
<path d="" fill="#4B4E5F" transform="translate(0,0)"/>
<path d="" fill="#504F5B" transform="translate(0,0)"/>
<path d="" fill="#745D50" transform="translate(0,0)"/>
<path d="" fill="#82644A" transform="translate(0,0)"/>
<path d="M0 0 C2 1 2 1 2 1 Z " fill="#8C6C4E" transform="translate(868,626)"/>
<path d="M0 0 C2 1 2 1 2 1 Z " fill="#CF8E31" transform="translate(927,623)"/>
<path d="" fill="#E4982D" transform="translate(0,0)"/>
<path d="" fill="#E2982D" transform="translate(0,0)"/>
<path d="" fill="#E3992F" transform="translate(0,0)"/>
<path d="" fill="#E59A2D" transform="translate(0,0)"/>
<path d="" fill="#E5992D" transform="translate(0,0)"/>
<path d="" fill="#E2972C" transform="translate(0,0)"/>
<path d="" fill="#444556" transform="translate(0,0)"/>
<path d="M0 0 C2 1 2 1 2 1 Z " fill="#896947" transform="translate(804,238)"/>
<path d="M0 0 C2 1 2 1 2 1 Z " fill="#C28530" transform="translate(816,225)"/>
<path d="M0 0 C2 1 2 1 2 1 Z " fill="#DB9127" transform="translate(924,193)"/>
<path d="M0 0 C2 1 2 1 2 1 Z " fill="#DB9129" transform="translate(856,193)"/>
<path d="M0 0 C2 1 2 1 2 1 Z " fill="#D78E27" transform="translate(899,187)"/>
<path d="" fill="#060708" transform="translate(0,0)"/>
<path d="" fill="#4C4D5E" transform="translate(0,0)"/>
<path d="" fill="#404150" transform="translate(0,0)"/>
<path d="" fill="#47495A" transform="translate(0,0)"/>
<path d="" fill="#494B5D" transform="translate(0,0)"/>
<path d="" fill="#4E4F60" transform="translate(0,0)"/>
<path d="" fill="#4C4E61" transform="translate(0,0)"/>
<path d="" fill="#4D4F62" transform="translate(0,0)"/>
<path d="" fill="#4E5062" transform="translate(0,0)"/>
<path d="" fill="#4E5062" transform="translate(0,0)"/>
<path d="" fill="#4A4D5F" transform="translate(0,0)"/>
<path d="" fill="#434555" transform="translate(0,0)"/>
<path d="" fill="#4A4C5C" transform="translate(0,0)"/>
<path d="" fill="#4A4A5C" transform="translate(0,0)"/>
<path d="" fill="#414555" transform="translate(0,0)"/>
<path d="" fill="#4B4D5F" transform="translate(0,0)"/>
<path d="" fill="#4B4D5E" transform="translate(0,0)"/>
<path d="" fill="#4C4F62" transform="translate(0,0)"/>
<path d="" fill="#4A4C5F" transform="translate(0,0)"/>
<path d="" fill="#4A4E5E" transform="translate(0,0)"/>
<path d="" fill="#4C4F61" transform="translate(0,0)"/>
<path d="" fill="#4D4E5F" transform="translate(0,0)"/>
<path d="" fill="#4D4E62" transform="translate(0,0)"/>
<path d="" fill="#4D4D59" transform="translate(0,0)"/>
<path d="" fill="#4B4F61" transform="translate(0,0)"/>
<path d="" fill="#4D4D60" transform="translate(0,0)"/>
<path d="" fill="#4F4F5A" transform="translate(0,0)"/>
<path d="" fill="#4D4F61" transform="translate(0,0)"/>
<path d="" fill="#4E4D60" transform="translate(0,0)"/>
<path d="" fill="#4C4E5E" transform="translate(0,0)"/>
<path d="" fill="#4E5163" transform="translate(0,0)"/>
<path d="" fill="#4E4D5B" transform="translate(0,0)"/>
<path d="" fill="#525469" transform="translate(0,0)"/>
<path d="" fill="#515060" transform="translate(0,0)"/>
<path d="" fill="#565259" transform="translate(0,0)"/>
<path d="" fill="#595359" transform="translate(0,0)"/>
<path d="" fill="#504F5E" transform="translate(0,0)"/>
<path d="" fill="#524E5C" transform="translate(0,0)"/>
<path d="" fill="#525569" transform="translate(0,0)"/>
<path d="" fill="#6C5B53" transform="translate(0,0)"/>
<path d="" fill="#7F624F" transform="translate(0,0)"/>
<path d="" fill="#615555" transform="translate(0,0)"/>
<path d="" fill="#81684B" transform="translate(0,0)"/>
<path d="" fill="#83694D" transform="translate(0,0)"/>
<path d="" fill="#655757" transform="translate(0,0)"/>
<path d="" fill="#8B6A4A" transform="translate(0,0)"/>
<path d="" fill="#906D4A" transform="translate(0,0)"/>
<path d="" fill="#6F5C53" transform="translate(0,0)"/>
<path d="" fill="#7D614F" transform="translate(0,0)"/>
<path d="" fill="#796250" transform="translate(0,0)"/>
<path d="" fill="#7E6149" transform="translate(0,0)"/>
<path d="" fill="#A6773C" transform="translate(0,0)"/>
<path d="" fill="#B78139" transform="translate(0,0)"/>
<path d="" fill="#B4813A" transform="translate(0,0)"/>
<path d="" fill="#906944" transform="translate(0,0)"/>
<path d="" fill="#BB843B" transform="translate(0,0)"/>
<path d="" fill="#CE8E30" transform="translate(0,0)"/>
<path d="" fill="#D08E32" transform="translate(0,0)"/>
<path d="" fill="#D08F32" transform="translate(0,0)"/>
<path d="" fill="#D49030" transform="translate(0,0)"/>
<path d="" fill="#DA922F" transform="translate(0,0)"/>
<path d="" fill="#D9932E" transform="translate(0,0)"/>
<path d="" fill="#505469" transform="translate(0,0)"/>
<path d="" fill="#DB942F" transform="translate(0,0)"/>
<path d="" fill="#E3992E" transform="translate(0,0)"/>
<path d="" fill="#E59A2E" transform="translate(0,0)"/>
<path d="" fill="#E69C2D" transform="translate(0,0)"/>
<path d="" fill="#E3982D" transform="translate(0,0)"/>
<path d="" fill="#E79B2D" transform="translate(0,0)"/>
<path d="" fill="#E89A2E" transform="translate(0,0)"/>
<path d="" fill="#E89D2F" transform="translate(0,0)"/>
<path d="" fill="#E6962A" transform="translate(0,0)"/>
<path d="" fill="#E69A2C" transform="translate(0,0)"/>
<path d="" fill="#E69B2C" transform="translate(0,0)"/>
<path d="" fill="#E79B2C" transform="translate(0,0)"/>
<path d="" fill="#515469" transform="translate(0,0)"/>
<path d="" fill="#E89C2E" transform="translate(0,0)"/>
<path d="" fill="#E99D2D" transform="translate(0,0)"/>
<path d="" fill="#53566A" transform="translate(0,0)"/>
<path d="" fill="#E89A2D" transform="translate(0,0)"/>
<path d="" fill="#E89D2D" transform="translate(0,0)"/>
<path d="" fill="#E99C2E" transform="translate(0,0)"/>
<path d="" fill="#E89D2F" transform="translate(0,0)"/>
<path d="" fill="#E99D30" transform="translate(0,0)"/>
<path d="" fill="#EA9E2F" transform="translate(0,0)"/>
<path d="" fill="#4F5569" transform="translate(0,0)"/>
<path d="" fill="#505569" transform="translate(0,0)"/>
<path d="" fill="#E79C2C" transform="translate(0,0)"/>
<path d="" fill="#E89C2E" transform="translate(0,0)"/>
<path d="" fill="#E7992C" transform="translate(0,0)"/>
<path d="" fill="#E69B2D" transform="translate(0,0)"/>
<path d="" fill="#E6982D" transform="translate(0,0)"/>
<path d="" fill="#E6992D" transform="translate(0,0)"/>
<path d="" fill="#E5982B" transform="translate(0,0)"/>
<path d="" fill="#E5992C" transform="translate(0,0)"/>
<path d="" fill="#E89B2C" transform="translate(0,0)"/>
<path d="" fill="#4E5165" transform="translate(0,0)"/>
<path d="" fill="#4D4F63" transform="translate(0,0)"/>
<path d="" fill="#E79A2E" transform="translate(0,0)"/>
<path d="" fill="#E49A2F" transform="translate(0,0)"/>
<path d="" fill="#E69B2B" transform="translate(0,0)"/>
<path d="" fill="#E59B2E" transform="translate(0,0)"/>
<path d="" fill="#E4992C" transform="translate(0,0)"/>
<path d="" fill="#E6992D" transform="translate(0,0)"/>
<path d="" fill="#E3962A" transform="translate(0,0)"/>
<path d="" fill="#454A5B" transform="translate(0,0)"/>
<path d="" fill="#45485A" transform="translate(0,0)"/>
<path d="" fill="#46485C" transform="translate(0,0)"/>
<path d="" fill="#DC972F" transform="translate(0,0)"/>
<path d="" fill="#454758" transform="translate(0,0)"/>
<path d="" fill="#997448" transform="translate(0,0)"/>
<path d="" fill="#715D4C" transform="translate(0,0)"/>
<path d="" fill="#63554D" transform="translate(0,0)"/>
<path d="" fill="#3F4453" transform="translate(0,0)"/>
<path d="" fill="#414451" transform="translate(0,0)"/>
<path d="" fill="#404251" transform="translate(0,0)"/>
<path d="" fill="#414454" transform="translate(0,0)"/>
<path d="" fill="#9E733F" transform="translate(0,0)"/>
<path d="" fill="#9B7240" transform="translate(0,0)"/>
<path d="" fill="#A5793E" transform="translate(0,0)"/>
<path d="" fill="#DD9127" transform="translate(0,0)"/>
<path d="" fill="#C5882C" transform="translate(0,0)"/>
<path d="" fill="#DA942A" transform="translate(0,0)"/>
<path d="" fill="#DF942C" transform="translate(0,0)"/>
<path d="" fill="#C78A2E" transform="translate(0,0)"/>
<path d="" fill="#DD922A" transform="translate(0,0)"/>
<path d="" fill="#DA9329" transform="translate(0,0)"/>
<path d="" fill="#CD8B2F" transform="translate(0,0)"/>
<path d="" fill="#DB932B" transform="translate(0,0)"/>
<path d="" fill="#D48E2B" transform="translate(0,0)"/>
<path d="" fill="#DA9228" transform="translate(0,0)"/>
<path d="" fill="#D68E29" transform="translate(0,0)"/>
<path d="" fill="#DB9128" transform="translate(0,0)"/>
<path d="" fill="#D28A28" transform="translate(0,0)"/>
<path d="" fill="#DA9026" transform="translate(0,0)"/>
<path d="" fill="#DC9228" transform="translate(0,0)"/>
<path d="" fill="#DA9029" transform="translate(0,0)"/>
<path d="" fill="#DB9027" transform="translate(0,0)"/>
<path d="" fill="#DA8E27" transform="translate(0,0)"/>
<path d="" fill="#DA8F28" transform="translate(0,0)"/>
<path d="" fill="#D88E28" transform="translate(0,0)"/>
<path d="" fill="#D89027" transform="translate(0,0)"/>
<path d="" fill="#D48D27" transform="translate(0,0)"/>
</svg>
